<?xml version="1.0" encoding="utf-8"?>
<!-- Generator: Adobe Illustrator 24.1.0, SVG Export Plug-In . SVG Version: 6.00 Build 0)  -->
<svg version="1.1" id="Livello_1" xmlns="http://www.w3.org/2000/svg" xmlns:xlink="http://www.w3.org/1999/xlink" x="0px" y="0px"
	 viewBox="0 0 230.8 120.2" style="enable-background:new 0 0 230.8 120.2;" xml:space="preserve">
<style type="text/css">
	.st0{clip-path:url(#SVGID_2_);}
	.st1{fill:#707070;}
	.st2{clip-path:url(#SVGID_4_);}
	.st3{fill:#6F6F6F;}
	.st4{fill:#D6D6D6;}
	.st5{clip-path:url(#SVGID_6_);}
	.st6{fill:#EB4418;}
	.st7{fill:#7A230C;}
	.st8{fill:#78230C;}
	.st9{fill:#FFFFFF;}
	.st10{font-family:'Futura-Medium';}
	.st11{font-size:6.0643px;}
	.st12{fill:#40D923;}
	.st13{fill:#217112;}
	.st14{fill:#216F12;}
	.st15{font-size:6.051px;}
	.st16{clip-path:url(#SVGID_8_);}
	.st17{fill:#1E1E1E;}
	.st18{clip-path:url(#SVGID_10_);}
	.st19{fill:#227313;}
	.st20{fill:#1D1D1D;}
	.st21{clip-path:url(#SVGID_12_);}
	.st22{clip-path:url(#SVGID_14_);}
	.st23{clip-path:url(#SVGID_16_);}
	.st24{clip-path:url(#SVGID_18_);}
	.st25{clip-path:url(#SVGID_20_);}
	.st26{clip-path:url(#SVGID_22_);}
	.st27{clip-path:url(#SVGID_24_);}
	.st28{clip-path:url(#SVGID_26_);}
	.st29{clip-path:url(#SVGID_28_);}
	.st30{clip-path:url(#SVGID_30_);}
	.st31{clip-path:url(#SVGID_32_);}
	.st32{clip-path:url(#SVGID_34_);}
	.st33{clip-path:url(#SVGID_36_);}
	.st34{clip-path:url(#SVGID_38_);}
	.st35{clip-path:url(#SVGID_40_);}
	.st36{clip-path:url(#SVGID_42_);}
	.st37{clip-path:url(#SVGID_44_);}
	.st38{clip-path:url(#SVGID_46_);}
	.st39{fill:#37BB1E;}
	.st40{clip-path:url(#SVGID_48_);}
	.st41{clip-path:url(#SVGID_50_);}
	.st42{clip-path:url(#SVGID_52_);}
	.st43{clip-path:url(#SVGID_54_);}
	.st44{fill:#313131;}
	.st45{opacity:0.3;}
	.st46{fill:#6D6D6D;}
	.st47{fill:#4770BA;}
	.st48{fill:#043F67;}
	.st49{fill:#AABFF2;}
	.st50{opacity:0.7;}
	.st51{fill:#6A8FDB;}
	.st52{fill:#61E2E2;}
	.st53{fill:#282D29;}
	.st54{fill:#213474;}
	.st55{opacity:0.5;}
	.st56{fill:#92E1E0;}
	.st57{fill:#EDE320;}
	.st58{fill:#094066;}
	.st59{fill:#53C9E5;}
	.st60{fill:#26A6D3;}
	.st61{opacity:0.35;}
	.st62{fill:#62DD85;}
	.st63{fill:#223672;}
	.st64{fill:#AA3794;}
	.st65{opacity:0.7;fill:#26A6D3;enable-background:new    ;}
	.st66{opacity:0.7;fill:#53C9E5;enable-background:new    ;}
	.st67{fill:#D3BD1C;}
	.st68{opacity:0.3;fill:#D3BD1C;enable-background:new    ;}
	.st69{opacity:0.7;fill:#AA951D;enable-background:new    ;}
</style>
<g id="Livello_2_1_">
	<g id="Background">
		<g>
			<g>
				<g>
					<g>
						<defs>
							<path id="SVGID_1_" d="M0.1,47v-3.4c0,0.9,0.7,1.8,2.1,2.5v3.4C0.8,48.8,0.1,47.9,0.1,47z"/>
						</defs>
						<clipPath id="SVGID_2_">
							<use xlink:href="#SVGID_1_"  style="overflow:visible;"/>
						</clipPath>
						<g class="st0">
							<g>
								<path class="st1" d="M2.1,46v3.4C0.7,48.8,0,47.9,0,47v-3.4C0.1,44.5,0.8,45.4,2.1,46"/>
							</g>
						</g>
					</g>
				</g>
			</g>
			<g>
				<g>
					<g>
						<defs>
							<path id="SVGID_3_" d="M230.7,73.2l0.1,3.4c0,0.9-0.6,1.8-1.9,2.5v-3.4C230.1,75,230.8,74.1,230.7,73.2z"/>
						</defs>
						<clipPath id="SVGID_4_">
							<use xlink:href="#SVGID_3_"  style="overflow:visible;"/>
						</clipPath>
						<g class="st2">
							<g>
								<path class="st1" d="M230.7,73.2l0.1,3.4c0,0.9-0.6,1.8-1.9,2.5v-3.4C230.1,75,230.8,74.1,230.7,73.2"/>
							</g>
						</g>
					</g>
				</g>
			</g>
			<polygon class="st3" points="228.8,75.7 228.8,79.1 154.9,119 154.8,115.6 			"/>
			<polygon class="st3" points="145.1,115.8 145.1,119.2 2.1,49.5 2.1,46 			"/>
			<path class="st4" d="M228.6,70.7c2.7,1.3,2.8,3.6,0.1,5l-74,39.9c-3.1,1.4-6.6,1.5-9.7,0.2L2.1,46c-2.7-1.3-2.8-3.5-0.1-5L76,1.1
				c3-1.4,6.5-1.4,9.6-0.1L228.6,70.7z"/>
			<g>
				<g>
					<g>
						<defs>
							<path id="SVGID_5_" d="M154.8,115.6v3.4c-3.1,1.4-6.6,1.5-9.7,0.2v-3.4C148.2,117.1,151.8,117,154.8,115.6z"/>
						</defs>
						<clipPath id="SVGID_6_">
							<use xlink:href="#SVGID_5_"  style="overflow:visible;"/>
						</clipPath>
						<g class="st5">
							<g>
								<path class="st1" d="M154.8,115.6v3.4c-3.1,1.4-6.6,1.5-9.7,0.2v-3.4C148.2,117.1,151.8,117,154.8,115.6"/>
							</g>
						</g>
					</g>
				</g>
			</g>
		</g>
		<g>
			<polygon class="st6" points="67,53.4 56.8,58 30.8,45.8 41,41.3 			"/>
			<polygon class="st7" points="67,53.4 67,54.3 56.8,58.9 56.8,58 			"/>
			<polygon class="st8" points="56.8,58 56.8,58.9 30.8,46.7 30.8,45.8 			"/>
		</g>
		<text transform="matrix(1.0953 0.5175 -0.9142 0.4053 39.4195 47.1899)" class="st9 st10 st11">O</text>
		<text transform="matrix(1.0953 0.5175 -0.9142 0.4053 45.1701 49.92)" class="st9 st10 st11">U</text>
		<text transform="matrix(1.0953 0.5175 -0.9142 0.4053 50.0999 52.2701)" class="st9 st10 st11">T</text>
		<g>
			<polygon class="st12" points="153.9,94.6 143.7,99.1 117.7,87 127.9,82.5 			"/>
			<polygon class="st13" points="153.9,94.6 154,95.5 143.8,100 143.7,99.1 			"/>
			<polygon class="st14" points="143.7,99.1 143.8,100 117.8,87.9 117.7,87 			"/>
		</g>
		<text transform="matrix(1.0804 0.5532 -0.9249 0.3803 129.7884 89.76)" class="st9 st10 st15">I</text>
		<text transform="matrix(1.0804 0.5532 -0.9249 0.3803 131.6381 90.72)" class="st9 st10 st15">N</text>
		<g>
			<g>
				<g>
					<g>
						<defs>
							<path id="SVGID_7_" d="M117.7,50.3l0.1-1.5c0-0.1,0-0.1,0.1-0.1c0.2-0.1,0.4-0.1,0.5,0l-0.1,1.5
								C118.1,50.1,117.9,50.1,117.7,50.3C117.7,50.1,117.7,50.2,117.7,50.3z"/>
						</defs>
						<clipPath id="SVGID_8_">
							<use xlink:href="#SVGID_7_"  style="overflow:visible;"/>
						</clipPath>
						<g class="st16">
							<g>
								<path class="st17" d="M118.4,48.6l-0.1,1.5c-0.2-0.1-0.4-0.1-0.5,0c0,0-0.1,0.1-0.1,0.2l0.1-1.5c0-0.1,0-0.1,0.1-0.1
									C118,48.5,118.2,48.5,118.4,48.6"/>
							</g>
						</g>
					</g>
				</g>
			</g>
			<g>
				<g>
					<g>
						<defs>
							<path id="SVGID_9_" d="M117.7,50.3l0.1-1.5c0,0.1,0.1,0.2,0.2,0.2l-0.1,1.5C117.8,50.4,117.7,50.3,117.7,50.3z"/>
						</defs>
						<clipPath id="SVGID_10_">
							<use xlink:href="#SVGID_9_"  style="overflow:visible;"/>
						</clipPath>
						<g class="st18">
							<g>
								<path class="st19" d="M117.9,49l-0.1,1.5c-0.1,0-0.1-0.1-0.2-0.2l0.1-1.5C117.8,48.9,117.8,49,117.9,49"/>
							</g>
						</g>
					</g>
				</g>
			</g>
			<polygon class="st20" points="125.4,50.7 125.4,52.2 125.3,52.2 			"/>
			<g>
				<g>
					<g>
						<defs>
							<path id="SVGID_11_" d="M125,52.4l0.1-1.5c0-0.1,0-0.1,0.1-0.1s0.1-0.1,0.2-0.1v1.5c-0.1,0-0.2,0-0.2,0.1
								C125.1,52.3,125,52.3,125,52.4z"/>
						</defs>
						<clipPath id="SVGID_12_">
							<use xlink:href="#SVGID_11_"  style="overflow:visible;"/>
						</clipPath>
						<g class="st21">
							<g>
								<path class="st17" d="M125.4,50.7v1.5c-0.1,0-0.2,0-0.2,0.1l-0.1,0.1l0.1-1.5C125.2,50.8,125.2,50.8,125.4,50.7
									C125.3,50.7,125.4,50.7,125.4,50.7"/>
							</g>
						</g>
					</g>
				</g>
			</g>
			<polygon class="st14" points="125.3,52.5 125.2,53.9 125.1,52.4 125.1,50.9 			"/>
			<polygon class="st20" points="125.3,52.5 125.2,53.9 118.3,50.1 118.4,48.6 			"/>
			<polygon class="st14" points="124.8,52.8 124.7,54.3 117.9,50.5 117.9,49 			"/>
			<g>
				<g>
					<g>
						<defs>
							<path id="SVGID_13_" d="M119.3,50.5l-0.1,1.5c0-0.1-0.1-0.1-0.1-0.2H119h-0.2l0.1-1.5h0.2h0.1
								C119.2,50.4,119.2,50.5,119.3,50.5z"/>
						</defs>
						<clipPath id="SVGID_14_">
							<use xlink:href="#SVGID_13_"  style="overflow:visible;"/>
						</clipPath>
						<g class="st22">
							<g>
								<path class="st17" d="M119.3,50.5l-0.1,1.5c0-0.1-0.1-0.1-0.1-0.2H119h-0.2l0.1-1.5h0.2h0.1
									C119.2,50.4,119.2,50.5,119.3,50.5"/>
							</g>
						</g>
					</g>
				</g>
			</g>
			<polygon class="st20" points="119.3,50.5 119.2,52 119.2,52 			"/>
			<polygon class="st20" points="118.9,50.3 118.8,51.8 115.9,51.9 115.9,50.4 			"/>
			<polygon class="st20" points="115.9,50.4 115.9,51.9 115.8,51.9 			"/>
			<g>
				<g>
					<g>
						<defs>
							<polygon id="SVGID_15_" points="119.3,50.6 119.2,52 119.2,52 119.3,50.5 							"/>
						</defs>
						<clipPath id="SVGID_16_">
							<use xlink:href="#SVGID_15_"  style="overflow:visible;"/>
						</clipPath>
						<g class="st23">
							<g>
								<path class="st17" d="M119.3,50.6l-0.1,1.5l0,0L119.3,50.6L119.3,50.6"/>
							</g>
						</g>
					</g>
				</g>
			</g>
			<g>
				<g>
					<g>
						<defs>
							<path id="SVGID_17_" d="M125.8,50.9v1.5c0-0.1-0.1-0.1-0.1-0.2c0,0,0,0-0.1,0c0,0-0.1,0-0.2,0l0.1-1.5c0,0,0.1,0,0.2,0h0.1
								C125.7,50.8,125.8,50.8,125.8,50.9z"/>
						</defs>
						<clipPath id="SVGID_18_">
							<use xlink:href="#SVGID_17_"  style="overflow:visible;"/>
						</clipPath>
						<g class="st24">
							<g>
								<path class="st17" d="M125.8,50.9v1.5c0-0.1-0.1-0.1-0.1-0.2c0,0,0,0-0.1,0c0,0-0.1,0-0.2,0l0.1-1.5c0,0,0.1,0,0.2,0h0.1
									C125.8,50.8,125.8,50.8,125.8,50.9"/>
							</g>
						</g>
					</g>
				</g>
			</g>
			<g>
				<g>
					<g>
						<defs>
							<polygon id="SVGID_19_" points="125,52.4 125.1,50.9 125.1,50.9 							"/>
						</defs>
						<clipPath id="SVGID_20_">
							<use xlink:href="#SVGID_19_"  style="overflow:visible;"/>
						</clipPath>
						<g class="st25">
							<g>
								<path class="st19" d="M125.1,50.9l-0.1,1.5l0,0L125.1,50.9L125.1,50.9"/>
							</g>
						</g>
					</g>
				</g>
			</g>
			<g>
				<g>
					<g>
						<defs>
							<path id="SVGID_21_" d="M119.3,50.6l-0.1,1.5c0,0.1,0,0.1-0.1,0.1s-0.1,0.1-0.2,0.1v-1.5c0.1,0,0.2,0,0.2-0.1
								C119.2,50.7,119.2,50.6,119.3,50.6z"/>
						</defs>
						<clipPath id="SVGID_22_">
							<use xlink:href="#SVGID_21_"  style="overflow:visible;"/>
						</clipPath>
						<g class="st26">
							<g>
								<path class="st19" d="M119.3,50.6l-0.1,1.5c0,0.1,0,0.1-0.1,0.1s-0.1,0.1-0.2,0.1v-1.5c0.1,0,0.2,0,0.2-0.1
									C119.2,50.6,119.2,50.6,119.3,50.6"/>
							</g>
						</g>
					</g>
				</g>
			</g>
			<g>
				<g>
					<g>
						<defs>
							<path id="SVGID_23_" d="M115.5,52.1l0.1-1.5c0-0.1,0-0.1,0.1-0.1c0.1-0.1,0.2-0.1,0.3-0.1l-0.1,1.5c-0.1,0-0.2,0-0.2,0.1
								C115.6,52,115.5,52.1,115.5,52.1z"/>
						</defs>
						<clipPath id="SVGID_24_">
							<use xlink:href="#SVGID_23_"  style="overflow:visible;"/>
						</clipPath>
						<g class="st27">
							<g>
								<path class="st17" d="M115.9,50.4l-0.1,1.5c-0.1,0-0.2,0-0.2,0.1c0,0-0.1,0.1-0.1,0.2l0.1-1.5c0-0.1,0-0.1,0.1-0.1
									C115.7,50.4,115.8,50.4,115.9,50.4"/>
							</g>
						</g>
					</g>
				</g>
			</g>
			<g>
				<g>
					<g>
						<defs>
							<polygon id="SVGID_25_" points="115.5,52.1 115.6,50.6 115.6,50.6 							"/>
						</defs>
						<clipPath id="SVGID_26_">
							<use xlink:href="#SVGID_25_"  style="overflow:visible;"/>
						</clipPath>
						<g class="st28">
							<g>
								<path class="st19" d="M115.6,50.7l-0.1,1.5l0,0L115.6,50.7L115.6,50.7"/>
							</g>
						</g>
					</g>
				</g>
			</g>
			<polygon class="st14" points="119,50.8 118.9,52.2 116.8,52.3 116.8,50.8 			"/>
			<polygon class="st20" points="126,52.9 126,54.4 125.7,52.4 125.8,50.9 			"/>
			<g>
				<g>
					<g>
						<defs>
							<polygon id="SVGID_27_" points="126,54.4 126,54.4 126.1,53 126.1,53 							"/>
						</defs>
						<clipPath id="SVGID_28_">
							<use xlink:href="#SVGID_27_"  style="overflow:visible;"/>
						</clipPath>
						<g class="st29">
							<g>
								<path class="st17" d="M126,53v1.4l0,0V53L126,53"/>
							</g>
						</g>
					</g>
				</g>
			</g>
			<polygon class="st20" points="124.8,52.8 124.7,54.3 122.6,54.3 122.6,52.9 			"/>
			<polygon class="st14" points="122.3,53.1 122.3,54.6 122.3,54.6 			"/>
			<g>
				<g>
					<g>
						<defs>
							<path id="SVGID_29_" d="M122.3,54.5l0.1-1.5c0-0.1,0-0.1,0.1-0.1s0.1-0.1,0.2-0.1l-0.1,1.5C122.5,54.3,122.4,54.3,122.3,54.5
								C122.3,54.4,122.3,54.5,122.3,54.5z"/>
						</defs>
						<clipPath id="SVGID_30_">
							<use xlink:href="#SVGID_29_"  style="overflow:visible;"/>
						</clipPath>
						<g class="st30">
							<g>
								<path class="st17" d="M122.6,52.9l-0.1,1.5c-0.1,0-0.2,0-0.2,0.1l-0.1,0.1l0.1-1.5c0-0.1,0-0.1,0.1-0.1
									C122.5,52.9,122.6,52.9,122.6,52.9"/>
							</g>
						</g>
					</g>
				</g>
			</g>
			<g>
				<g>
					<g>
						<defs>
							<path id="SVGID_31_" d="M122.4,53.3v1.5l0,0l-0.1-0.1L122.4,53.3C122.4,53.2,122.4,53.2,122.4,53.3L122.4,53.3z"/>
						</defs>
						<clipPath id="SVGID_32_">
							<use xlink:href="#SVGID_31_"  style="overflow:visible;"/>
						</clipPath>
						<g class="st31">
							<g>
								<path class="st19" d="M122.4,53.3v1.5l0,0l-0.1-0.1L122.4,53.3C122.4,53.2,122.4,53.2,122.4,53.3L122.4,53.3"/>
							</g>
						</g>
					</g>
				</g>
			</g>
			<polygon class="st14" points="125.7,53.2 125.6,54.7 122.6,54.8 122.7,53.3 			"/>
			<g>
				<g>
					<g>
						<defs>
							<polygon id="SVGID_33_" points="122.7,53.3 122.6,54.8 122.5,54.8 122.4,54.8 122.4,53.3 122.5,53.3 							"/>
						</defs>
						<clipPath id="SVGID_34_">
							<use xlink:href="#SVGID_33_"  style="overflow:visible;"/>
						</clipPath>
						<g class="st32">
							<g>
								<path class="st19" d="M122.7,53.3l-0.1,1.5h-0.1h-0.1v-1.5h0.1H122.7"/>
							</g>
						</g>
					</g>
				</g>
			</g>
			<polygon class="st20" points="123.7,54.6 123.6,56.1 116.8,52.3 116.8,50.8 			"/>
			<polygon class="st14" points="123.2,55 123.2,56.5 116.2,52.6 116.3,51.2 			"/>
			<polygon class="st20" points="116.5,52.7 116.4,54.2 116.2,52.6 116.3,51.2 			"/>
			<g>
				<g>
					<g>
						<defs>
							<polygon id="SVGID_35_" points="116.5,52.7 116.5,54.2 116.5,54.2 							"/>
						</defs>
						<clipPath id="SVGID_36_">
							<use xlink:href="#SVGID_35_"  style="overflow:visible;"/>
						</clipPath>
						<g class="st33">
							<g>
								<path class="st17" d="M116.5,52.7v1.5l0,0V52.7L116.5,52.7"/>
							</g>
						</g>
					</g>
				</g>
			</g>
			<polygon class="st14" points="115.8,52.7 115.8,54.2 115.5,52.2 115.6,50.7 			"/>
			<g>
				<g>
					<g>
						<defs>
							<path id="SVGID_37_" d="M126,53v1.4c0,0.1,0,0.1-0.1,0.2l0.1-1.5C126,53.1,126,53,126,53z"/>
						</defs>
						<clipPath id="SVGID_38_">
							<use xlink:href="#SVGID_37_"  style="overflow:visible;"/>
						</clipPath>
						<g class="st34">
							<g>
								<path class="st19" d="M126,53v1.4c0,0.1,0,0.1-0.1,0.2l0.1-1.5C126,53.1,126,53,126,53"/>
							</g>
						</g>
					</g>
				</g>
			</g>
			<g>
				<g>
					<g>
						<defs>
							<path id="SVGID_39_" d="M125.9,53.1l-0.1,1.5c-0.1,0.1-0.2,0.1-0.3,0.1l0.1-1.5C125.8,53.2,125.9,53.2,125.9,53.1z"/>
						</defs>
						<clipPath id="SVGID_40_">
							<use xlink:href="#SVGID_39_"  style="overflow:visible;"/>
						</clipPath>
						<g class="st35">
							<g>
								<path class="st19" d="M125.9,53.1l-0.1,1.5c-0.1,0.1-0.2,0.1-0.3,0.1l0.1-1.5C125.8,53.2,125.9,53.2,125.9,53.1"/>
							</g>
						</g>
					</g>
				</g>
			</g>
			<polygon class="st14" points="125.7,53.2 125.6,54.7 125.6,54.7 			"/>
			<g>
				<g>
					<g>
						<defs>
							<polygon id="SVGID_41_" points="122.3,54.5 122.3,53.1 122.3,53.1 							"/>
						</defs>
						<clipPath id="SVGID_42_">
							<use xlink:href="#SVGID_41_"  style="overflow:visible;"/>
						</clipPath>
						<g class="st36">
							<g>
								<path class="st19" d="M122.3,53.1l-0.1,1.5l0,0L122.3,53.1L122.3,53.1"/>
							</g>
						</g>
					</g>
				</g>
			</g>
			<polygon class="st14" points="116.2,52.9 116.1,54.4 116.1,54.4 			"/>
			<g>
				<g>
					<g>
						<defs>
							<path id="SVGID_43_" d="M116.5,52.7v1.5c0,0.1,0,0.1-0.1,0.1s-0.1,0.1-0.2,0.1l0.1-1.5C116.4,52.9,116.4,52.9,116.5,52.7
								L116.5,52.7z"/>
						</defs>
						<clipPath id="SVGID_44_">
							<use xlink:href="#SVGID_43_"  style="overflow:visible;"/>
						</clipPath>
						<g class="st37">
							<g>
								<path class="st19" d="M116.5,52.7v1.5c0,0.1,0,0.1-0.1,0.1s-0.1,0.1-0.2,0.1l0.1-1.5C116.4,52.9,116.4,52.9,116.5,52.7
									C116.5,52.8,116.5,52.8,116.5,52.7"/>
							</g>
						</g>
					</g>
				</g>
			</g>
			<g>
				<g>
					<g>
						<defs>
							<path id="SVGID_45_" d="M116.2,52.9v1.5c-0.1,0-0.2,0-0.2,0c-0.1,0-0.1-0.1-0.1-0.2l0.1-1.5C116,52.8,116.1,52.8,116.2,52.9
								C116,52.9,116.1,52.9,116.2,52.9z"/>
						</defs>
						<clipPath id="SVGID_46_">
							<use xlink:href="#SVGID_45_"  style="overflow:visible;"/>
						</clipPath>
						<g class="st38">
							<g>
								<path class="st19" d="M116.2,52.9v1.5c-0.1,0-0.2,0-0.2,0c-0.1,0-0.1-0.1-0.1-0.2l0.1-1.5C116,52.8,116.1,52.8,116.2,52.9
									C116.1,52.9,116.1,52.9,116.2,52.9"/>
							</g>
						</g>
					</g>
				</g>
			</g>
			<path class="st39" d="M125.7,50.8c0.1,0,0.1,0.1,0.1,0.2l0.2,2c0,0.1,0,0.1-0.1,0.2c-0.1,0.1-0.2,0.1-0.2,0.1l0,0l-3,0.1h-0.1
				h-0.1l0,0l-0.1-0.1l0,0c0-0.1,0-0.1,0.1-0.2c0.1,0,0.1-0.1,0.2-0.1l2.1-0.1l-6.9-3.8c-0.2-0.1-0.2-0.2-0.1-0.3
				c0.2-0.1,0.4-0.1,0.5,0l6.9,3.8l-0.2-1.5c0-0.1,0-0.1,0.1-0.2c0.1,0,0.1-0.1,0.2-0.1l0,0c0,0,0.1,0,0.2,0
				C125.5,50.8,125.7,50.8,125.7,50.8z"/>
			<g>
				<g>
					<g>
						<defs>
							<path id="SVGID_47_" d="M123.8,54.8l-0.1,1.5c0-0.1-0.1-0.2-0.1-0.2l0.1-1.5C123.8,54.7,123.8,54.7,123.8,54.8z"/>
						</defs>
						<clipPath id="SVGID_48_">
							<use xlink:href="#SVGID_47_"  style="overflow:visible;"/>
						</clipPath>
						<g class="st40">
							<g>
								<path class="st17" d="M123.8,54.8l-0.1,1.5c0-0.1-0.1-0.2-0.1-0.2l0.1-1.5C123.8,54.7,123.8,54.7,123.8,54.8"/>
							</g>
						</g>
					</g>
				</g>
			</g>
			<g>
				<g>
					<g>
						<defs>
							<path id="SVGID_49_" d="M123.8,54.8l-0.1,1.5c0,0.1,0,0.1-0.1,0.2l0.1-1.5C123.8,54.9,123.8,54.9,123.8,54.8z"/>
						</defs>
						<clipPath id="SVGID_50_">
							<use xlink:href="#SVGID_49_"  style="overflow:visible;"/>
						</clipPath>
						<g class="st41">
							<g>
								<path class="st19" d="M123.8,54.8l-0.1,1.5c0,0.1,0,0.1-0.1,0.2l0.1-1.5C123.8,54.9,123.8,54.9,123.8,54.8"/>
							</g>
						</g>
					</g>
				</g>
			</g>
			<g>
				<g>
					<g>
						<defs>
							<path id="SVGID_51_" d="M123.7,55l-0.1,1.5c-0.2,0.1-0.3,0.1-0.5,0l0.1-1.5C123.4,55.1,123.6,55.1,123.7,55z"/>
						</defs>
						<clipPath id="SVGID_52_">
							<use xlink:href="#SVGID_51_"  style="overflow:visible;"/>
						</clipPath>
						<g class="st42">
							<g>
								<path class="st19" d="M123.7,55l-0.1,1.5c-0.2,0.1-0.3,0.1-0.5,0l0.1-1.5C123.4,55.1,123.6,55.1,123.7,55"/>
							</g>
						</g>
					</g>
				</g>
			</g>
			<g>
				<g>
					<g>
						<defs>
							<path id="SVGID_53_" d="M131.7,52.2l-0.1,1.5c-0.1,1.7-1,3.3-2.4,4.3c-3.8,3.2-10.7,3.6-15.4,0.9c-2.8-1.6-4.3-3.9-4.2-6.2
								l0.1-1.5c-0.1,2.3,1.4,4.6,4.2,6.2c4.8,2.7,11.7,2.2,15.4-0.9C130.7,55.5,131.6,53.9,131.7,52.2z"/>
						</defs>
						<clipPath id="SVGID_54_">
							<use xlink:href="#SVGID_53_"  style="overflow:visible;"/>
						</clipPath>
						<g class="st43">
							<g>
								<path class="st17" d="M131.7,52.2l-0.1,1.5c-0.1,1.7-1,3.3-2.4,4.3c-3.8,3.2-10.7,3.6-15.4,0.9c-2.8-1.6-4.3-3.9-4.2-6.2
									l0.1-1.5c-0.1,2.3,1.4,4.6,4.2,6.2c4.8,2.7,11.7,2.2,15.4-0.9C130.7,55.5,131.6,53.9,131.7,52.2"/>
							</g>
						</g>
					</g>
				</g>
			</g>
			<path class="st44" d="M127.5,46c4.8,2.6,5.6,7.3,1.9,10.5s-10.7,3.6-15.4,0.9s-5.6-7.3-1.9-10.5S122.7,43.4,127.5,46z
				 M118.4,48.6c-0.2-0.1-0.4-0.1-0.5,0s-0.1,0.2,0.1,0.3l6.8,3.8l-2.1,0.1c-0.1,0-0.2,0-0.2,0.1c-0.1,0-0.1,0.1-0.1,0.2l0,0
				c0,0.1,0.1,0.1,0.1,0.1l0,0h0.1h0.1l3-0.1l0,0c0.1,0,0.2,0,0.2-0.1c0.1,0,0.1-0.1,0.1-0.2l-0.2-2c0-0.1-0.1-0.1-0.1-0.2h-0.1
				c0,0-0.1,0-0.2,0l0,0c-0.1,0-0.2,0-0.2,0.1c-0.1,0-0.1,0.1-0.1,0.2l0.2,1.5L118.4,48.6 M123.3,55c0.2,0.1,0.3,0.1,0.5,0
				c0.1-0.1,0.1-0.2,0-0.3l-0.1-0.1l-6.9-3.8l2.1-0.1c0.1,0,0.2,0,0.2-0.1c0.1,0,0.1-0.1,0.1-0.2l0,0c0-0.1-0.1-0.1-0.1-0.2H119
				h-0.2l-3,0.1l0,0c-0.1,0-0.2,0-0.3,0.1c-0.1,0-0.1,0.1-0.1,0.2l0.2,2c0,0.1,0.1,0.1,0.1,0.2c0.1,0,0.1,0,0.2,0l0,0
				c0.1,0,0.1,0,0.2-0.1c0.1,0,0.1-0.1,0.1-0.2L116,51L123.3,55"/>
			<path class="st39" d="M119.1,50.4c0.1,0,0.1,0.1,0.1,0.2l0,0c0,0.1,0,0.1-0.1,0.2c-0.1,0-0.1,0.1-0.2,0.1l-2.1,0.1l6.9,3.8
				c0.1,0,0.2,0.1,0.1,0.3c0,0,0,0.1-0.1,0.1c-0.2,0.1-0.3,0.1-0.5,0l-6.9-3.8l0.2,1.5c0,0.1,0,0.1-0.1,0.2c-0.1,0-0.1,0.1-0.2,0.1
				l0,0c-0.1,0-0.1,0-0.2,0s-0.1-0.1-0.1-0.2l-0.2-2c0-0.1,0-0.1,0.1-0.2c0.1-0.1,0.2-0.1,0.3-0.1l0,0l3-0.1L119.1,50.4L119.1,50.4z
				"/>
		</g>
	</g>
</g>
<g id="Layer_9">
	<g>
		<g class="st45">
			
				<ellipse transform="matrix(0.4327 -0.9015 0.9015 0.4327 11.1864 186.0633)" class="st46" cx="153.4" cy="84.1" rx="1.2" ry="12.7"/>
		</g>
		<g>
			<path class="st47" d="M146.3,77c0,0-2.1,1.2-1.7,1.8c0.5,0.5,2.4,1,5.4,0.3s1.2-2,1.2-2S149.1,75.2,146.3,77z"/>
			<path class="st48" d="M144.9,79.1c-0.2-0.1-0.3-0.2-0.4-0.3c-0.5-0.5,1.5-1.7,1.7-1.8c1-0.6,2-0.9,3-0.8c1.3,0.1,2.1,0.8,2.2,0.9
				c0.1,0.1,0.7,0.5,0.6,1.1c-0.1,0.4-0.7,0.8-1.8,1c-2.4,0.5-3.9,0.3-4.6,0.2C145.3,79.2,145,79.2,144.9,79.1z M150.4,76.7
				c-0.3-0.2-0.7-0.3-1.2-0.4c-0.9-0.1-1.8,0.2-2.7,0.7l0,0c0,0-0.5,0.3-1,0.7c-0.8,0.6-0.7,0.9-0.7,1c0.1,0.2,0.4,0.3,0.9,0.4
				c1.6,0.4,3.6,0,4.4-0.2c1-0.2,1.5-0.5,1.6-0.9c0.1-0.5-0.5-0.9-0.5-0.9l0,0C151.1,77.1,150.8,76.9,150.4,76.7z"/>
		</g>
		<g>
			<path class="st47" d="M153.2,80.9c0,0-2.1,1.2-1.7,1.8c0.5,0.5,2.4,1,5.4,0.3s1.2-2,1.2-2S156,79,153.2,80.9z"/>
			<path class="st48" d="M151.8,82.9c-0.2-0.1-0.3-0.2-0.4-0.3c-0.5-0.5,1.5-1.7,1.7-1.8c1-0.6,2-0.9,3-0.8c1.3,0.1,2.1,0.8,2.2,0.9
				c0.1,0.1,0.7,0.5,0.6,1.1c-0.1,0.4-0.7,0.8-1.8,1c-2.4,0.5-3.9,0.3-4.6,0.2C152.2,83.1,151.9,83,151.8,82.9z M157.3,80.5
				c-0.3-0.2-0.7-0.3-1.2-0.4c-0.9-0.1-1.8,0.2-2.7,0.7l0,0c0,0-0.5,0.3-1,0.7c-0.8,0.6-0.7,0.9-0.7,1c0.1,0.2,0.4,0.3,0.9,0.4
				c1.6,0.4,3.6,0,4.4-0.2c1-0.2,1.5-0.5,1.6-0.9c0.1-0.5-0.5-0.9-0.5-0.9l0,0C158,81,157.7,80.8,157.3,80.5z"/>
		</g>
		<g>
			<path class="st47" d="M158.9,85.1c0,0,0.4,1.9,1.3,2.1c0.9,0.2,2.7-0.2,3.5-2s-1.9-2.1-1.9-2.1S158.1,82.5,158.9,85.1z"/>
			<path class="st48" d="M160,87.3c-0.8-0.4-1.2-2-1.2-2.2c-0.3-0.9,0-1.6,0.7-1.9c0.9-0.4,2.3-0.2,2.4-0.1c0.1,0,1.1,0.2,1.7,0.7
				c0.5,0.4,0.6,0.9,0.3,1.6c-0.7,1.4-1.8,1.9-2.4,2c-0.4,0.1-0.9,0.1-1.3,0C160.1,87.3,160,87.3,160,87.3z M162.9,83.6
				c-0.5-0.2-1.1-0.3-1.1-0.3l0,0c0,0-1.3-0.3-2.1,0.1c-0.6,0.3-0.9,0.9-0.6,1.7l0,0c0,0,0.1,0.5,0.3,1c0.4,0.9,0.7,1,0.9,1.1
				c0.3,0.1,0.6,0.1,1,0c1.4-0.3,2.1-1.4,2.3-1.9c0.3-0.6,0.2-1.1-0.2-1.4C163.2,83.8,163,83.7,162.9,83.6z"/>
		</g>
		<g>
			<path class="st49" d="M157.9,71.1c-0.7-0.5,1.3-6.2,3.5-8.1c0.8,0.3,3.1,0.2,2.7-0.5c-0.2-0.4-1.2-0.6-2-0.4
				c0.7-0.4,0.3-1.1-0.5-1.3c-0.9-0.1-1.1,0.7-1.1,0.7s-0.8-1.3-1.8-0.8c-0.8,0.5,1.5,1.8,1.5,1.8c-2.9,3-4,8.5-4,8.5
				S157,72.3,157.9,71.1z"/>
			<path class="st48" d="M156.6,71.6c-0.3-0.2-0.5-0.4-0.5-0.5l0,0l0,0c0,0,0.3-1.4,0.9-3.1c1-2.9,2.2-4.5,3-5.4
				c-0.4-0.3-2.2-1.4-1.4-1.8l0,0c0.3-0.1,0.5-0.2,0.8-0.1c0.5,0.1,0.8,0.4,1,0.7c0.2-0.3,0.5-0.6,1.2-0.5c0.4,0.1,0.7,0.2,0.9,0.4
				s0.2,0.5,0,0.8c0.4,0,0.8,0,1.1,0.1s0.5,0.3,0.6,0.4c0.1,0.2,0,0.4-0.3,0.5c-0.6,0.2-1.8,0.2-2.5,0.1c-0.9,0.9-1.9,2.5-2.7,4.5
				c-0.8,2.1-0.9,3.3-0.7,3.4h0.1l0,0c-0.3,0.4-0.6,0.6-1,0.5C156.9,71.7,156.7,71.7,156.6,71.6z M156.4,71.1
				c0.1,0.1,0.3,0.4,0.6,0.4c0.1,0,0.4,0,0.7-0.4c-0.5-0.6,0.6-3.2,0.7-3.5c0.8-2,1.9-3.8,2.8-4.6l0.1-0.1h0.1
				c0.5,0.2,1.8,0.2,2.3,0c0.2-0.1,0.3-0.2,0.2-0.3s-0.2-0.2-0.4-0.3c-0.4-0.1-0.8-0.1-1.3,0l-0.6,0.1l0.4-0.3
				c0.3-0.2,0.4-0.5,0.2-0.8c-0.1-0.2-0.3-0.3-0.6-0.3c-0.7-0.1-0.9,0.7-0.9,0.7l-0.1,0.3l-0.2-0.4c-0.1-0.2-0.5-0.7-1-0.8
				c-0.2,0-0.3,0-0.5,0.1c-0.6,0.3,0.9,1.3,1.5,1.6l0.1,0.1l-0.1,0.1c-0.8,0.9-2,2.5-3.1,5.4C156.7,69.6,156.4,71,156.4,71.1z"/>
		</g>
		<g class="st50">
			<path class="st51" d="M157.7,71.1c-0.3,0.3-0.5,0.4-0.6,0.4c0.2-3.9,2.8-7.8,3.6-8.4c0.3-0.2,0.5-0.2,0.6-0.2l0,0
				c-1,0.9-2,2.6-2.8,4.6c-0.3,0.9-0.6,1.7-0.7,2.3C157.5,70.8,157.6,71,157.7,71.1z"/>
		</g>
		<g>
			<path class="st49" d="M177.4,79.1c1,0.2,9.3-2.8,11.6-4.7c-0.7-0.4-1.4-1.7-0.2-1.7c0.7,0,1.3,0.5,1.3,1c0.5-0.5,1.7-0.5,2.2-0.1
				s-0.8,0.9-0.8,0.9s2.3,0,1.8,0.7c-0.5,0.6-3.3-0.3-3.3-0.3c-3.8,2.6-12.2,5.1-12.2,5.1S175.9,80,177.4,79.1z"/>
			<path class="st48" d="M176.9,79.9c-0.1,0-0.1-0.1-0.2-0.1c-0.2-0.2,0-0.5,0.5-0.8h0.1h0.1c0.3,0.1,2.1-0.4,5.2-1.6
				c2.8-1.1,5.2-2.2,6.2-3.1c-0.5-0.3-0.9-1-0.8-1.4c0.1-0.2,0.3-0.3,0.7-0.3c0.3,0,0.6,0.1,0.9,0.2c0.3,0.1,0.5,0.4,0.6,0.6
				c0.3-0.2,0.7-0.3,1.2-0.3c0.4,0,0.8,0.1,1,0.3c0.4,0.3-0.1,0.7-0.4,0.8c0.5,0,1.1,0.1,1.4,0.3c0.2,0.1,0.2,0.3,0.1,0.5l0,0
				c-0.5,0.6-2.8,0-3.4-0.2c-1.1,0.8-3.3,2-7.5,3.5c-2.5,0.9-4.6,1.6-4.7,1.6l0,0l0,0C177.9,80.1,177.3,80.1,176.9,79.9z
				 M177.5,79.2c-0.5,0.3-0.5,0.5-0.4,0.5c0.1,0.1,0.6,0.2,0.8,0.2c0.3-0.1,2.3-0.7,4.6-1.6s5.5-2.2,7.5-3.5h0.1h0.1
				c0.7,0.2,2.7,0.7,3.1,0.3c0.1-0.1,0.1-0.2,0-0.3c-0.3-0.2-1.3-0.3-1.6-0.3h-0.6l0.5-0.2c0,0,1.1-0.4,0.7-0.8
				c-0.1-0.1-0.4-0.2-0.7-0.2c-0.5,0-0.9,0.1-1.2,0.4l-0.3,0.3v-0.4c0-0.3-0.2-0.5-0.5-0.7c-0.2-0.1-0.4-0.2-0.6-0.1
				c-0.3,0-0.4,0.1-0.5,0.2c-0.2,0.4,0.3,1.1,0.7,1.3l0.1,0.1l-0.1,0.1c-1,0.8-3.4,2-6.4,3.1C182.4,77.8,178.5,79.3,177.5,79.2z"/>
		</g>
		<g class="st50">
			<path class="st51" d="M177.4,79.2c-0.4,0.3-0.5,0.4-0.5,0.5c6.2-1.5,11.4-4.2,12.1-4.9c0.3-0.2,0.1-0.4,0.1-0.4H189
				c-1,0.8-3.4,2-6.3,3.1c-1.2,0.5-2.4,0.9-3.4,1.2C178.1,79.2,177.6,79.2,177.4,79.2z"/>
		</g>
		<g>
			<path class="st49" d="M150.6,77.8c0,0-3.6,1-8.5-1.4c0,0-1.5-0.8-0.3-1.5s4,0.7,7.9-1.1c3.9-1.9,11.7-7.4,16.6-7.9
				c4.9-0.5,8.4,0.4,11.7,2s7.8,4.6,4.8,8.3c-3,3.7-9,6.6-10.6,7.7s-3.5,2.4-3.3,4.4c-0.2,2.5-4.1,1.4-5.3,0c-1.4-1.6,0.7-3.1-1.4-4
				c-2.4-0.9-4.7,2.2-7.1,0.9c-3.1-1.6,2.3-2.8,0.2-3.9c-1.8-1-5.8,1.5-8.2-0.1C144.9,79.8,150.6,77.8,150.6,77.8z"/>
			<path class="st48" d="M155.1,85.3C155.1,85.3,155,85.3,155.1,85.3c-1.9-1-0.9-1.8-0.2-2.5c0.6-0.5,1.1-1,0.3-1.5
				c-0.7-0.4-1.9-0.1-3.2,0.1c-1.5,0.3-3.3,0.7-4.6,0c-0.1-0.1-0.2-0.1-0.3-0.2c-0.4-0.3-0.6-0.6-0.6-0.9c0.1-0.9,2-1.9,3.2-2.4
				c-0.4,0-0.9,0.1-1.4,0c-1.4,0-3.6-0.4-6.2-1.6l0,0c-0.5-0.3-1.3-1.1-0.3-1.6c0.5-0.3,1.2-0.2,2.1-0.2c1.4,0.1,3.4,0.2,5.8-1
				c1.2-0.6,2.7-1.5,4.4-2.4c3.9-2.3,8.8-5.1,12.3-5.5c2.4-0.2,4.5-0.2,6.5,0.2c1.7,0.3,3.4,0.9,5.3,1.8c1.5,0.7,3.6,1.9,4.8,3.4
				c1.4,1.7,1.4,3.4,0,5c-2.3,2.9-6.4,5.3-8.9,6.7c-0.8,0.4-1.4,0.8-1.7,1c-0.1,0.1-0.1,0.1-0.2,0.2c-1.5,1.1-3.3,2.3-3.1,4.2l0,0
				c0,0.6-0.3,1.5-1.9,1.6c-1.3,0-3-0.7-3.8-1.6c-0.6-0.7-0.5-1.5-0.5-2.1c0.1-0.8,0.2-1.4-0.9-1.8c-1-0.4-2.1,0-3.2,0.5
				C157.7,85.4,156.4,86,155.1,85.3z M155.3,81.2C155.4,81.2,155.4,81.2,155.3,81.2c1.1,0.6,0.4,1.2-0.2,1.7c-0.8,0.7-1.5,1.4,0,2.2
				c1.2,0.6,2.3,0.1,3.5-0.4c1.1-0.5,2.3-1,3.5-0.5c1.3,0.5,1.2,1.2,1.1,2c-0.1,0.6-0.2,1.3,0.4,2c0.7,0.8,2.3,1.5,3.4,1.4
				c1,0,1.6-0.5,1.6-1.4c-0.2-1.9,1.6-3.2,3.1-4.3c0.1-0.1,0.1-0.1,0.2-0.2c0.4-0.3,1-0.6,1.7-1.1c2.4-1.4,6.5-3.8,8.8-6.7
				c3-3.8-1.7-6.8-4.7-8.2c-1.9-0.9-3.5-1.4-5.2-1.8c-2-0.4-4.1-0.5-6.4-0.2c-3.4,0.4-8.3,3.2-12.2,5.5c-1.7,1-3.2,1.9-4.4,2.4
				c-2.5,1.2-4.6,1.1-6,1c-0.8,0-1.5-0.1-1.9,0.1c-1,0.6,0.1,1.3,0.3,1.4c2.5,1.2,4.6,1.5,5.9,1.5c1.5,0,2.4-0.2,2.4-0.2l0.2,0.2
				c0,0-3.8,1.3-3.9,2.6c0,0.3,0.1,0.5,0.5,0.7c0.1,0.1,0.2,0.1,0.3,0.2c1.2,0.6,2.8,0.3,4.3,0C153.2,81,154.4,80.8,155.3,81.2z"/>
		</g>
		<g>
			<path class="st9" d="M166.1,70.4c0,0-1.5-0.8-0.7-1.7c0.8-0.9,2.5-0.8,3.5-0.4c0.9,0.3,1.8,0.9,1.7,1.7
				C170.4,70.8,168.4,71.6,166.1,70.4z"/>
			<path class="st48" d="M166.1,70.5C166,70.5,166,70.5,166.1,70.5L166.1,70.5c-0.1-0.1-1.7-0.9-0.8-1.9c0.5-0.5,1.2-0.7,1.8-0.7
				s1.3,0.1,1.9,0.3c0.5,0.2,2,0.8,1.8,1.8c-0.1,0.6-0.8,1-1.7,1.1C168.1,71.2,167.1,71,166.1,70.5z M166.2,70.3
				c0.9,0.5,1.9,0.7,2.7,0.5c0.8-0.1,1.4-0.5,1.5-1c0.2-0.9-1.1-1.4-1.6-1.6s-1.1-0.3-1.7-0.2c-0.5,0-1.2,0.2-1.6,0.6
				C164.8,69.5,166.1,70.3,166.2,70.3z"/>
		</g>
		<g>
			<ellipse transform="matrix(0.1418 -0.9899 0.9899 0.1418 75.142 226.3096)" class="st52" cx="168.1" cy="69.8" rx="1" ry="1.8"/>
		</g>
		<g>
			
				<ellipse transform="matrix(0.1418 -0.9899 0.9899 0.1418 75.1419 226.3095)" class="st53" cx="168.1" cy="69.8" rx="0.7" ry="1.3"/>
		</g>
		<g>
			
				<ellipse transform="matrix(0.1418 -0.9899 0.9899 0.1418 74.8485 227.123)" class="st9" cx="168.4" cy="70.4" rx="0.3" ry="0.5"/>
		</g>
		<g>
			
				<ellipse transform="matrix(0.4155 -0.9096 0.9096 0.4155 34.1533 192.2843)" class="st9" cx="166.7" cy="69.6" rx="0.1" ry="0.7"/>
		</g>
		<g>
			<path class="st9" d="M174.5,74.5c0,0-1.5-0.8-0.7-1.7s2.5-0.8,3.5-0.4c0.9,0.3,1.8,0.9,1.7,1.7C178.8,74.9,176.8,75.6,174.5,74.5
				z"/>
			<path class="st48" d="M174.5,74.6C174.4,74.6,174.4,74.5,174.5,74.6L174.5,74.6c-0.1-0.1-1.7-0.9-0.8-1.9
				c0.5-0.5,1.2-0.7,1.8-0.7s1.3,0.1,1.9,0.3c0.5,0.2,2,0.8,1.8,1.8c-0.1,0.6-0.8,1-1.7,1.1C176.5,75.3,175.5,75.1,174.5,74.6z
				 M174.6,74.4c0.9,0.5,1.9,0.7,2.7,0.5c0.8-0.1,1.4-0.5,1.5-1c0.2-0.9-1.1-1.4-1.6-1.6s-1.1-0.3-1.7-0.2c-0.5,0-1.2,0.2-1.6,0.6
				C173.2,73.6,174.5,74.4,174.6,74.4z"/>
		</g>
		<g>
			<ellipse transform="matrix(0.1418 -0.9899 0.9899 0.1418 77.9893 237.038)" class="st52" cx="175.7" cy="73.5" rx="1" ry="1.8"/>
		</g>
		<g>
			
				<ellipse transform="matrix(0.1418 -0.9899 0.9899 0.1418 77.9893 237.0378)" class="st53" cx="175.7" cy="73.5" rx="0.7" ry="1.3"/>
		</g>
		<g>
			<ellipse transform="matrix(0.1418 -0.9899 0.9899 0.1418 77.1307 235.7)" class="st9" cx="174.5" cy="73.4" rx="0.3" ry="0.5"/>
		</g>
		<g>
			
				<ellipse transform="matrix(0.4155 -0.9096 0.9096 0.4155 35.4473 203.5765)" class="st9" cx="176.1" cy="74.2" rx="0.1" ry="0.7"/>
		</g>
		<g>
			<path class="st54" d="M159.3,73c3.8-1.1,7.9-0.3,9.9,0.7s5.1,3.2,2.4,5.9c-1.4,1.4-4.2,0.7-5.2-0.2c-1.1-1,0-1.9-1.5-2.7
				c-1.7-0.8-3.7,0.1-5.6-0.7C157.4,75.1,157,73.7,159.3,73z"/>
			<path class="st48" d="M167,79.9c-0.3-0.1-0.5-0.3-0.7-0.5c-0.5-0.5-0.6-0.9-0.6-1.3c0-0.5-0.1-0.9-0.9-1.3l0,0
				c-0.8-0.4-1.7-0.4-2.6-0.3c-1,0-2,0-3-0.4s-1.6-1-1.7-1.6c0-0.6,0.5-1.2,1.7-1.5l0.1,0.1l-0.1-0.1c1.7-0.5,3.7-0.7,5.7-0.5
				c1.6,0.2,3.2,0.6,4.3,1.1c0.6,0.3,2.2,1.2,3,2.4c0.8,1.2,0.7,2.5-0.5,3.7c-0.8,0.8-1.8,0.9-2.6,0.8
				C168.4,80.4,167.6,80.2,167,79.9z M165,76.6L165,76.6c0.9,0.5,1,1,1,1.5c0,0.4,0.1,0.8,0.5,1.2c0.4,0.4,1.5,0.8,2.5,0.9
				c0.7,0,1.7,0,2.3-0.7c1.2-1.2,1.3-2.3,0.5-3.5s-2.3-2-2.9-2.3c-1.1-0.5-2.6-0.9-4.2-1.1c-1.9-0.2-3.8-0.1-5.5,0.5
				c-1,0.3-1.6,0.8-1.5,1.4c0,0.5,0.6,1.1,1.5,1.5s1.8,0.4,2.7,0.3C163.1,76.2,164.1,76.2,165,76.6z"/>
		</g>
		<g>
			<path class="st9" d="M164.2,74.6c-1.5-0.6-0.5-2-0.5-2s0.1,0,0.1-0.1c0.4,0,0.7,0,1.1,0.1c0.6,0.1,1.3,0.2,1.9,0.3
				C165.4,73.3,164.8,74.8,164.2,74.6z"/>
		</g>
		<g>
			<path class="st9" d="M172.1,76.7c0,0-2.3,0.8-3.6,0.1c-0.4-0.3,2.1-0.9,2.6-1.8c0.3,0.3,0.7,0.6,0.9,1c0.1,0.2,0.2,0.4,0.3,0.6
				C172.3,76.6,172.2,76.6,172.1,76.7z"/>
		</g>
		<g>
			<path class="st9" d="M168.7,66.5c-0.5,0-0.9,0.1-1.4,0.2c-0.4,0.1-0.9,0.1-1.3,0.2c-0.1,0-0.2,0-0.3,0.1h-0.2c-0.1,0-0.1,0-0.2,0
				c-0.1,0-0.2,0-0.3,0.1c-0.1,0-0.2,0-0.3,0.1c-0.1,0-0.1,0-0.2,0s-0.1,0-0.2,0c-0.1,0-0.2,0-0.3,0.1c-0.2,0-0.4,0.1-0.6,0.1
				c0.1,0,0.2-0.1,0.2-0.1s0.1,0,0.1-0.1c0,0,0.1,0,0.1-0.1c0.1,0,0.2-0.1,0.3-0.1s0.2-0.1,0.3-0.1s0.2-0.1,0.3-0.1s0.2-0.1,0.3-0.1
				s0.1,0,0.2,0h0.2c0.1,0,0.2,0,0.3-0.1c0.4-0.1,0.9-0.1,1.4-0.1C167.7,66.4,168.2,66.4,168.7,66.5z"/>
		</g>
		<g>
			<path class="st9" d="M168.7,66.5c-0.5,0-0.9,0.1-1.4,0.2c-0.4,0.1-0.9,0.1-1.3,0.2c-0.1,0-0.2,0-0.3,0.1h-0.2c-0.1,0-0.1,0-0.2,0
				c-0.1,0-0.2,0-0.3,0.1c-0.1,0-0.2,0-0.3,0.1c-0.1,0-0.1,0-0.2,0s-0.1,0-0.2,0c-0.1,0-0.2,0-0.3,0.1c-0.2,0-0.4,0.1-0.6,0.1
				c0.1,0,0.2-0.1,0.2-0.1s0.1,0,0.1-0.1c0,0,0.1,0,0.1-0.1c0.1,0,0.2-0.1,0.3-0.1s0.2-0.1,0.3-0.1s0.2-0.1,0.3-0.1s0.2-0.1,0.3-0.1
				s0.1,0,0.2,0h0.2c0.1,0,0.2,0,0.3-0.1c0.4-0.1,0.9-0.1,1.4-0.1C167.7,66.4,168.2,66.4,168.7,66.5z"/>
		</g>
		<g>
			<path class="st9" d="M181.4,76.5c-0.1,0.2-0.2,0.4-0.4,0.6c-0.1,0.2-0.3,0.4-0.5,0.5c-0.2,0.2-0.4,0.3-0.7,0.5
				c-0.2,0.1-0.5,0.3-0.9,0.4c0.2-0.2,0.4-0.3,0.6-0.5c0.2-0.2,0.4-0.3,0.6-0.5c0.2-0.2,0.4-0.3,0.6-0.5
				C181,76.8,181.2,76.6,181.4,76.5z"/>
		</g>
		<g class="st55">
			<path class="st56" d="M157.1,71.7L157.1,71.7L157.1,71.7L157.1,71.7z"/>
		</g>
		<g class="st50">
			<path class="st51" d="M167.2,89.7c-1.2,0-2.7-0.6-3.4-1.5c-0.6-0.7-0.5-1.4-0.4-2c0.1-0.8,0.2-1.5-1.1-2c-1.2-0.5-2.4,0-3.5,0.5
				c-1.2,0.5-2.3,1-3.5,0.4c0,0,0,0-0.1,0c-1.6-0.8-0.8-1.6,0-2.2c0.6-0.6,1.3-1.1,0.2-1.7c0,0,0,0-0.1,0c-0.9-0.4-2.2-0.2-3.5,0.1
				c-1.5,0.3-3.1,0.6-4.3,0c-0.1,0-0.2-0.1-0.3-0.2c-0.3-0.2-0.5-0.5-0.5-0.7c0-0.5,0.7-1.1,2-1.7c1-0.5,1.9-0.8,1.9-0.8l-0.2-0.1
				c0,0-0.9,0.2-2.4,0.2c-1.4,0-3.5-0.4-6-1.5c-0.1-0.1-1.3-0.8-0.3-1.4c0.4-0.2,1-0.2,1.9-0.1c1.1,0.1,2.5,0.1,4.2-0.3
				c-0.7,0.6-1.3,1.3-0.7,1.8c1.2,1,3.8,0.2,5,1.1s-1.6,1.7-0.4,2.4c1.3,0.7,3.7-0.5,5.5,0.5c1.9,1.1-1.2,1.8,0.9,2.8
				c2.1,1,3.1-1,5.4-0.1c2.5,0.9,1,2.2,2.8,2.7s2.5-1.4,4.9-1.2c-1.4,1-2.7,2.1-2.5,3.8C168.8,89.2,168.2,89.7,167.2,89.7z"/>
		</g>
	</g>
</g>
<g>
	<g class="st45">
		
			<ellipse transform="matrix(0.4882 -0.8727 0.8727 0.4882 -3.0625 73.2527)" class="st46" cx="60.9" cy="39.2" rx="1.2" ry="11.2"/>
	</g>
	<g>
		<g>
			<path class="st57" d="M65.1,20.6c0,0-0.7-0.2-1.6,0.1c0.8,0.1,1.1,0.5,1.1,0.5s0.6,0.2,0.8-0.1C65.6,20.8,65.1,20.6,65.1,20.6z"
				/>
			<path class="st58" d="M62.9,20.7l0.4-0.1c1-0.3,1.7-0.1,1.8-0.1l0,0l0,0c0.2,0.1,0.6,0.3,0.3,0.6c-0.3,0.3-0.8,0.2-1,0.1l0,0l0,0
				c0,0-0.2-0.3-1-0.4L62.9,20.7z M65,20.7c-0.1,0-0.5-0.1-1.1,0c0.4,0.1,0.6,0.3,0.7,0.4c0.1,0,0.4,0.1,0.6-0.1
				C65.3,20.9,65.1,20.7,65,20.7z"/>
		</g>
		<g>
			<path class="st57" d="M64.1,21.3c0,0-0.8-0.1-1.6,0.3c0.8,0,1.2,0.3,1.2,0.3s0.6,0.1,0.8-0.2C64.7,21.4,64.1,21.3,64.1,21.3z"/>
			<path class="st58" d="M62,21.7l0.4-0.2c0.9-0.4,1.7-0.3,1.7-0.3l0,0l0,0c0.2,0.1,0.7,0.2,0.5,0.5c-0.2,0.3-0.7,0.3-1,0.3l0,0l0,0
				c0,0-0.4-0.3-1.1-0.3L62,21.7z M64,21.4c-0.1,0-0.5,0-1.1,0.1c0.5,0.1,0.7,0.2,0.8,0.3c0.1,0,0.5,0,0.5-0.1
				C64.4,21.5,64.1,21.4,64,21.4z"/>
		</g>
		<g>
			<path class="st57" d="M63.6,22.1c0,0-0.6,0.3-0.8,0.9c0.6-0.4,1.2-0.4,1.2-0.4s0.6-0.2,0.3-0.5C64.2,21.9,63.6,22.1,63.6,22.1z"
				/>
			<path class="st58" d="M62.7,23.2l0.1-0.3c0.1-0.6,0.8-1,0.8-1l0,0l0,0c0.3-0.1,0.8-0.1,1,0.1c0.2,0.3-0.2,0.5-0.4,0.6l0,0l-0.1,0
				c0,0-0.6,0-1.1,0.3L62.7,23.2z M63.7,22.1c-0.1,0-0.4,0.2-0.6,0.6c0.4-0.2,0.8-0.2,0.9-0.2c0.1,0,0.4-0.2,0.2-0.3
				C64.2,22,63.8,22.1,63.7,22.1z"/>
		</g>
	</g>
	<g>
		<path class="st59" d="M64.5,23c0,0-1.6-0.7-0.5-1.8c1-1,3.8-0.6,3.8-0.6s2.7,0.4,4.7,0.3c2.2-0.1,2.9,0.3,3.2,0.9
			s-2.9,2.6-6.1,2.1C65.6,23.5,65,23.3,64.5,23z"/>
		<path class="st58" d="M64.3,23c-0.4-0.2-1.3-0.9-0.4-1.8c0.4-0.4,1.3-0.7,2.4-0.7c0.8,0,1.5,0,1.5,0l0,0c0,0,2.7,0.4,4.6,0.3
			c2.1-0.1,3,0.2,3.4,1c0.1,0.3-0.2,0.7-0.9,1.1c-1.1,0.7-3.2,1.4-5.4,1.1c-4.2-0.5-4.7-0.8-5.1-1C64.4,23.1,64.4,23.1,64.3,23z
			 M67.8,20.7c-0.1,0-0.7-0.1-1.5,0c-1,0.1-1.7,0.3-2.1,0.6c-1,1,0.4,1.6,0.4,1.6l0,0c0.5,0.2,1.2,0.5,5,1c2,0.3,4-0.4,5.1-1.1
			c0.6-0.4,0.9-0.8,0.9-1c-0.2-0.6-0.8-1-3-0.9C70.6,21.1,68,20.7,67.8,20.7z"/>
	</g>
	<g class="st50">
		<path class="st60" d="M73.7,23.4c-1.1,0.4-2.6,0.8-4.1,0.6c-3.8-0.5-4.5-0.7-5-1l0,0c0,0-0.7-0.3-0.8-0.8c1.1-0.1,2.3,0,2.3,0
			s2.7,0.5,4.6,0.5C72.6,22.6,73.4,22.9,73.7,23.4z"/>
	</g>
	<g>
		<g>
			<path class="st57" d="M91.6,35.7c0,0,0.3,0.4-0.1,1c-0.3-0.5-0.8-0.6-0.8-0.6s-0.3-0.3,0.1-0.5C91.2,35.4,91.6,35.7,91.6,35.7z"
				/>
			<path class="st58" d="M91.5,37l-0.1-0.3c-0.2-0.4-0.7-0.6-0.7-0.6l0,0l0,0c-0.1-0.1-0.3-0.5,0.1-0.6c0.4-0.2,0.8,0,1,0.1l0,0l0,0
				c0,0,0.3,0.5-0.1,1.1L91.5,37z M91.2,36.1c0.1,0.1,0.2,0.1,0.3,0.3c0.1-0.3,0-0.6-0.1-0.6c-0.1,0-0.3-0.2-0.6-0.1
				c-0.2,0.1-0.1,0.3-0.1,0.3C90.9,36,91.1,36.1,91.2,36.1z"/>
		</g>
		<g>
			<path class="st57" d="M90.6,36.3c0,0,0.1,0.5-0.4,1c-0.1-0.5-0.6-0.7-0.6-0.7s-0.2-0.4,0.3-0.5C90.3,36,90.6,36.3,90.6,36.3z"/>
			<path class="st58" d="M90,37.6l0-0.3c-0.1-0.5-0.5-0.6-0.5-0.6l0,0l0,0c-0.1-0.2-0.1-0.5,0.4-0.6c0.5-0.1,0.8,0.1,0.9,0.3l0,0
				l0,0c0,0,0.2,0.5-0.5,1L90,37.6z M89.8,36.5c0.1,0.1,0.3,0.2,0.5,0.5c0.2-0.3,0.2-0.6,0.2-0.6c0,0-0.2-0.2-0.5-0.2
				C89.7,36.3,89.7,36.5,89.8,36.5C89.8,36.5,89.8,36.5,89.8,36.5z"/>
		</g>
		<g>
			<path class="st57" d="M89.3,36.6c0,0-0.5,0.4-1.5,0.5c0.6-0.4,0.5-0.8,0.5-0.8s0.3-0.3,0.8-0.2C89.5,36.3,89.3,36.6,89.3,36.6z"
				/>
			<path class="st58" d="M87.4,37.3l0.3-0.2c0.5-0.4,0.5-0.7,0.5-0.7l0,0l0,0c0.1-0.1,0.5-0.4,1-0.3c0.4,0.1,0.4,0.5,0.2,0.6l0,0
				l0,0c0,0-0.5,0.4-1.6,0.5L87.4,37.3z M88.5,36.4c0,0.1,0,0.3-0.3,0.6c0.6-0.1,0.9-0.3,0.9-0.4c0-0.1,0.2-0.3-0.1-0.3
				C88.8,36.2,88.6,36.3,88.5,36.4z"/>
		</g>
	</g>
	<g>
		<path class="st59" d="M87.6,36.1c0,0,1.3,0.9,3,0.2c1.5-0.7,0.9-2.3,0.9-2.3s-0.8-1.6-0.8-2.8c0-1.3-0.6-1.7-1.7-1.9
			s-4.1,1.8-3.2,3.8C86.8,35.5,87.2,35.9,87.6,36.1z"/>
		<path class="st58" d="M87.6,36.3c-0.1,0-0.1-0.1-0.1-0.1c-0.4-0.2-0.9-0.6-2-3c-0.6-1.3,0.5-2.6,1.6-3.3c0.7-0.4,1.4-0.7,1.9-0.6
			c1.4,0.1,1.9,0.7,1.9,2c0,1.1,0.8,2.7,0.8,2.7l0,0c0,0,0.2,0.4,0.1,0.9c0,0.7-0.4,1.2-1.1,1.5C89.2,37.1,88,36.5,87.6,36.3z
			 M87.8,36.1c0.1,0,1.2,0.8,2.8,0.2c0.6-0.3,0.9-0.7,0.9-1.3c0-0.5-0.1-0.8-0.1-0.9c-0.1-0.1-0.9-1.6-0.8-2.8
			c0-1.3-0.6-1.7-1.6-1.8c-0.4,0-1,0.2-1.6,0.6c-1,0.7-2,1.9-1.5,3.1C86.9,35.4,87.3,35.8,87.8,36.1L87.8,36.1z"/>
	</g>
	<g class="st50">
		<path class="st60" d="M86.6,30.7c-0.7,0.7-1.1,1.6-0.7,2.5c1,2.2,1.5,2.7,1.9,2.9l0,0c0,0,0.5,0.4,1.3,0.4
			c0.2-0.7-0.1-1.4-0.1-1.4s-1-1.6-1-2.7C87.9,31.3,87.4,30.8,86.6,30.7z"/>
	</g>
	<g>
		<g>
			<path class="st57" d="M56.1,33.5c0,0-0.5-0.3-1.5-0.3c0.6,0.3,0.6,0.7,0.6,0.7s0.4,0.3,0.8,0.1C56.4,33.9,56.1,33.5,56.1,33.5z"
				/>
			<path class="st58" d="M55.2,34c-0.1,0-0.1-0.1-0.1-0.1l0,0l0,0c0,0,0-0.3-0.6-0.6l-0.3-0.2l0.5,0c1.1,0,1.6,0.4,1.6,0.4l0,0l0,0
				c0.1,0.1,0.3,0.5-0.2,0.6C55.7,34.2,55.4,34.1,55.2,34z M55.3,33.8c0.1,0.1,0.3,0.2,0.5,0.1c0.2-0.1,0.1-0.3,0.1-0.4
				c-0.1,0-0.4-0.2-1-0.3C55.3,33.5,55.3,33.8,55.3,33.8z"/>
		</g>
		<g>
			<path class="st57" d="M55,34c0,0-0.6-0.3-1.6-0.1c0.7,0.2,0.8,0.6,0.8,0.6s0.5,0.3,0.8,0C55.4,34.3,55,34,55,34z"/>
			<path class="st58" d="M54.1,34.5L54.1,34.5c0,0-0.1-0.4-0.8-0.6L53,33.8l0.4-0.1c1-0.1,1.7,0.1,1.7,0.2l0,0l0,0
				c0.2,0.1,0.4,0.4,0,0.6C54.8,34.8,54.4,34.6,54.1,34.5L54.1,34.5z M54,33.9c0.3,0.2,0.4,0.4,0.5,0.4c0.1,0,0.4,0.1,0.6,0
				c0.2-0.1,0-0.3-0.1-0.4C54.8,34,54.5,33.9,54,33.9C53.9,33.9,53.9,33.9,54,33.9z"/>
		</g>
		<g>
			<path class="st57" d="M54.7,34.9c0,0-0.6-0.3-1.6-0.3c0.7,0.3,0.7,0.7,0.7,0.7s0.4,0.3,0.8,0.1C55,35.2,54.7,34.9,54.7,34.9z"/>
			<path class="st58" d="M53.8,35.4C53.7,35.4,53.7,35.4,53.8,35.4L53.8,35.4l-0.1-0.1c0,0-0.1-0.3-0.7-0.6l-0.4-0.2l0.5,0
				c1.1-0.1,1.7,0.3,1.7,0.3l0,0l0,0c0.1,0.1,0.3,0.4-0.1,0.6C54.4,35.7,54,35.5,53.8,35.4z M54,35.3c0.1,0.1,0.3,0.2,0.6,0.1
				c0.2-0.1,0.1-0.3,0-0.4c-0.1,0-0.4-0.2-1-0.2C53.9,35,54,35.2,54,35.3z"/>
		</g>
	</g>
	<g>
		<path class="st59" d="M63.7,31.9c0,0-2.3,1.5-4.2,1.7s-2.3-0.3-3.6-0.1c-1,0.2-1.8,0.9-1.6,1.9c0.1,0.9,2.6,2.2,5,1.8
			s6.1-3.1,7.6-3.4C68.1,32.7,65.7,31.3,63.7,31.9z"/>
		<path class="st58" d="M55.3,36.6c-0.6-0.4-1-0.8-1.1-1.2c-0.1-0.9,0.6-1.7,1.8-2c0.6-0.1,1.1-0.1,1.6,0c0.5,0.1,1.1,0.2,2,0.1
			c1.8-0.2,4.1-1.7,4.1-1.7l0,0l0,0c0.5-0.2,1.1-0.2,1.7-0.1c0.5,0.1,1,0.3,1.4,0.5c0.7,0.5,0.8,1.1,0.3,1.6l0,0l-0.1,0
			c-0.6,0.1-1.6,0.7-2.7,1.3c-1.6,0.9-3.5,1.9-4.9,2.1c-1.1,0.2-2.4,0-3.5-0.5C55.6,36.8,55.4,36.7,55.3,36.6z M63.8,32
			c-0.1,0.1-0.7,0.4-1.4,0.8c-1.1,0.5-2.1,0.9-2.9,1c-1,0.1-1.6,0-2.1-0.1c-0.5-0.1-0.8-0.1-1.4,0c-1,0.2-1.6,0.9-1.5,1.8
			c0.1,0.4,0.7,0.9,1.5,1.3c1,0.4,2.2,0.6,3.3,0.4c1.3-0.2,3.1-1.2,4.7-2.1c1.1-0.6,2.1-1.2,2.8-1.3c0.5-0.5,0.2-1-0.3-1.4
			C66,32,64.9,31.7,63.8,32z"/>
	</g>
	<g class="st50">
		<path class="st60" d="M66.9,33.7c-0.7,0.2-1.7,0.7-2.8,1.3c-1.6,0.9-3.4,1.9-4.7,2.1c-1,0.2-2.2,0-3.3-0.4
			c-0.9-0.4-1.5-0.9-1.5-1.3c0-0.2,0-0.4,0-0.5c1.4-0.1,2.2,1.4,4.4,1.3c2.5-0.1,7.3-3.3,7.3-3.3c0.2-0.1,0.5-0.1,0.8-0.1
			C67.2,33.1,67.2,33.4,66.9,33.7z"/>
	</g>
	<g>
		<g>
			<path class="st57" d="M70.6,41.8c0,0,0.6,0.3,0.6,0.9c-0.6-0.4-1.2-0.3-1.2-0.3s-0.5-0.2-0.3-0.5C70,41.6,70.6,41.8,70.6,41.8z"
				/>
			<path class="st58" d="M69.8,42.3c-0.2-0.1-0.4-0.3-0.2-0.5c0.3-0.3,0.8-0.2,1-0.1l0,0l0,0c0,0,0.6,0.3,0.7,1l0,0.3l-0.3-0.2
				c-0.5-0.3-1.1-0.3-1.1-0.3l-0.1,0l0,0C69.9,42.4,69.9,42.4,69.8,42.3z M70.5,41.8c-0.1,0-0.4-0.1-0.6,0.1
				c-0.1,0.1,0.1,0.3,0.2,0.3c0.1,0,0.5,0,0.9,0.2C70.9,42.1,70.6,41.9,70.5,41.8z"/>
		</g>
		<g>
			<path class="st57" d="M69.9,42.4c0,0,0.5,0.4,0.3,1c-0.4-0.4-1-0.5-1-0.5s-0.4-0.3-0.1-0.5C69.4,42.2,69.9,42.4,69.9,42.4z"/>
			<path class="st58" d="M69.1,43L69.1,43c-0.2-0.1-0.5-0.4-0.1-0.6c0.3-0.2,0.8-0.1,1,0l0,0l0,0c0,0,0.5,0.4,0.3,1l-0.1,0.3
				l-0.2-0.2C69.7,43,69.2,43,69.1,43L69.1,43z M69.8,42.5c-0.1,0-0.4-0.1-0.6,0c-0.2,0.1,0,0.3,0.1,0.3c0.1,0,0.5,0.1,0.8,0.3
				C70.1,42.8,69.8,42.5,69.8,42.5z"/>
		</g>
		<g>
			<path class="st57" d="M68.4,42.7c0,0,0.5,0.3,0.5,0.9c-0.5-0.4-1.1-0.4-1.1-0.4s-0.5-0.2-0.2-0.5C67.8,42.5,68.4,42.7,68.4,42.7z
				"/>
			<path class="st58" d="M67.6,43.3c-0.2-0.1-0.4-0.3-0.2-0.6c0.3-0.2,0.8-0.2,1-0.1l0,0l0,0c0,0,0.6,0.4,0.6,1l0,0.3l-0.3-0.2
				c-0.5-0.3-1-0.4-1-0.4l-0.1,0L67.6,43.3C67.6,43.3,67.6,43.3,67.6,43.3z M68.3,42.8c-0.1,0-0.4-0.1-0.6,0
				c-0.2,0.1,0.1,0.3,0.1,0.3c0.1,0,0.5,0.1,0.9,0.2C68.6,43,68.3,42.8,68.3,42.8z"/>
		</g>
	</g>
	<g>
		<path class="st59" d="M72.9,37.1c0,0-2.4,1.5-2.6,2.6s0.7,1.4,0.3,2.1c-0.3,0.6-1.5,1.1-3,1.1c-1.6,0-3.8-1.5-3.3-2.9
			c0.5-1.4,4.8-3.8,5.3-4.7C71.4,34.5,73.7,35.9,72.9,37.1z"/>
		<path class="st58" d="M65.5,42.4c-0.2-0.1-0.3-0.2-0.5-0.3c-0.8-0.6-1.2-1.4-1-2.1c0.3-0.9,1.9-2,3.3-3c0.9-0.7,1.8-1.3,2-1.7l0,0
			l0,0c0.8-0.3,1.9-0.3,2.7,0.1c0.4,0.2,0.8,0.5,0.9,0.8c0.2,0.3,0.2,0.7-0.1,1l0,0l0,0c0,0-2.3,1.4-2.6,2.5
			c-0.1,0.6,0.1,0.9,0.2,1.2c0.2,0.3,0.3,0.6,0.1,0.9c-0.3,0.7-1.6,1.2-3.2,1.2C66.9,43,66.2,42.8,65.5,42.4z M69.7,35.3
			c-0.2,0.4-1.1,1-2.1,1.7c-1.4,1-2.9,2.1-3.2,2.9c-0.2,0.6,0.1,1.3,0.9,1.9c0.7,0.5,1.6,0.8,2.3,0.9c1.4,0,2.6-0.4,2.9-1
			c0.2-0.3,0-0.5-0.1-0.8c-0.2-0.3-0.4-0.7-0.2-1.3c0.1-0.5,0.6-1.1,1.4-1.8c0.6-0.5,1.1-0.8,1.2-0.9c0.4-0.6-0.1-1.3-0.8-1.6
			C71.4,35.2,70.5,35,69.7,35.3z"/>
	</g>
	<g class="st50">
		<path class="st60" d="M69.7,35.3c-0.2,0.4-1.1,1-2.1,1.7c-1.4,1-2.9,2.1-3.2,2.9c-0.2,0.6,0.1,1.3,0.9,1.9
			c0.7,0.5,1.6,0.8,2.3,0.9c0.3,0,0.6,0,0.9-0.1c0.1-0.8-2.4-1.2-2.4-2.5c0-1.5,5-4.6,5-4.6c0.1-0.1,0.1-0.3,0.1-0.5
			C70.7,35.1,70.2,35.1,69.7,35.3z"/>
	</g>
	<g>
		<path class="st59" d="M67,35.6c0,0-5.5-2.8-6.5-5.5c-1-2.7,4.9-5.7,11-8.4c7.7-3.4,13.1-3,15.7-2.6c0,0,0.1-0.4-0.7-0.9
			c0.9,0,2.1,0.7,2.4,1.2c0.1-0.5-0.1-0.9-0.8-1.4c1,0,2.9,0.9,3,2c1.1-0.7,5.4-0.2,6.5,0.4c-1.1-0.1-3.9,0.1-4.5,1
			c1.3-0.2,2,0.7,2,0.7s-1-0.4-1.6-0.1c0.9,0.4,3.8,2.8-4.3,10.2S76.7,40.8,67,35.6z"/>
		<path class="st58" d="M66.2,35.3c-0.5-0.3-1.4-0.8-2.2-1.4c-1.4-1-3.1-2.4-3.7-3.8c-0.5-1.3,0.5-2.7,2.9-4.3
			c2.3-1.5,5.6-3.1,8.2-4.2c3.4-1.5,6.7-2.4,9.8-2.7c2-0.2,3.9-0.2,5.8,0.1c0-0.1-0.1-0.4-0.6-0.7L86,18.1l0.5,0
			c0.8,0,1.7,0.5,2.2,0.9c-0.1-0.3-0.3-0.6-0.8-0.9L87.7,18l0.4,0c1,0,2.8,0.9,3.1,1.9c1.5-0.6,5.5,0,6.5,0.5l0.4,0.2l-0.5,0
			c-1-0.1-3.4,0.1-4.2,0.8c1,0,1.6,0.5,1.9,0.8l0.2,0.3l-0.5-0.2c0,0-0.7-0.3-1.2-0.2c0.4,0.2,1.2,0.9,1.1,2.4
			c-0.2,2-2.1,4.6-5.5,7.8c-2.3,2.1-4.2,3.6-5.9,4.6c-1.9,1.1-3.6,1.7-5.4,1.9c-3,0.3-6.3-0.6-11-3.1C66.9,35.7,66.6,35.6,66.2,35.3
			z M87,18.4c0.4,0.4,0.4,0.7,0.4,0.7l0,0.1l-0.2,0c-1.9-0.3-3.9-0.3-5.9-0.1c-3.1,0.3-6.4,1.2-9.7,2.7c-5.9,2.6-11.9,5.7-10.9,8.3
			c1,2.6,6.4,5.4,6.5,5.5l0,0c4.6,2.5,7.8,3.4,10.8,3.1c3.2-0.3,6.3-2.1,11-6.4c3.4-3.1,5.2-5.7,5.5-7.7c0.1-0.7-0.1-1.9-1.1-2.4
			l-0.2-0.1l0.2-0.1c0.4-0.2,0.9-0.1,1.3,0c-0.1,0-0.1-0.1-0.2-0.1c-0.4-0.3-0.8-0.3-1.3-0.3l-0.3,0.1l0.1-0.2
			c0.6-0.8,2.8-1.1,4.1-1.1c-1.5-0.5-4.9-0.8-5.8-0.2l-0.3,0.2l0-0.2c0-0.5-0.4-1-1.1-1.4c-0.4-0.3-0.9-0.4-1.3-0.5
			c0.5,0.4,0.7,0.8,0.6,1.3L89,20l-0.3-0.4C88.4,19.1,87.7,18.6,87,18.4z"/>
	</g>
	<g class="st61">
		<path class="st60" d="M67.1,35.5c0,0-1.4-0.7-2.9-1.7c-2.5-1.7-3.3-3-3.6-3.7c-0.6-1.5,1.1-3.3,5.2-5.5c-0.9,3.2,0.8,6.4,4.7,8.6
			c3.9,2.2,9.3,3.1,14.6,2.3c-2.8,2-5.1,3-7.5,3.2C74.7,38.9,71.6,37.9,67.1,35.5L67.1,35.5L67.1,35.5z"/>
		<path d="M77.6,38.7c-2.9,0.2-6-0.7-10.5-3.1l0,0c0,0-1.4-0.7-2.9-1.7c-2.5-1.7-3.3-3-3.6-3.7c-0.6-1.5,1.1-3.3,5.2-5.5
			c-0.9,3.2,0.8,6.4,4.7,8.6c3.9,2.2,9.3,3.1,14.6,2.3C82.3,37.5,80,38.5,77.6,38.7z"/>
	</g>
	<g>
		<g>
			<path class="st9" d="M79.6,23.1c0,0-1.1-0.8-0.2-1.7c1-0.9,2.5-0.8,3.3-0.6c0.7,0.3,1.4,0.8,1.1,1.6
				C83.4,23.4,81.4,24.2,79.6,23.1z"/>
			<path class="st58" d="M79.5,23.2C79.5,23.2,79.5,23.2,79.5,23.2L79.5,23.2c-0.1,0-1.3-0.9-0.2-1.8c0.6-0.5,1.3-0.7,1.8-0.8
				c0.6-0.1,1.2,0,1.7,0.2c0.4,0.1,1.6,0.7,1.1,1.7c-0.3,0.5-1,1-1.9,1.2C81.2,23.8,80.3,23.7,79.5,23.2z M79.7,23
				c0.7,0.4,1.5,0.6,2.3,0.4c0.7-0.1,1.4-0.5,1.6-1c0.4-0.8-0.6-1.3-1-1.5c-0.4-0.2-0.9-0.2-1.4-0.2c-0.4,0-1.1,0.2-1.6,0.7
				C78.7,22.3,79.6,23,79.7,23z"/>
		</g>
		<g>
			
				<ellipse transform="matrix(0.9986 -5.288392e-02 5.288392e-02 0.9986 -1.0625 4.3593)" class="st62" cx="81.8" cy="22.3" rx="1.6" ry="1"/>
		</g>
		<g>
			
				<ellipse transform="matrix(0.9986 -5.288377e-02 5.288377e-02 0.9986 -1.0625 4.3592)" class="st53" cx="81.8" cy="22.3" rx="1.2" ry="0.7"/>
		</g>
		<g>
			
				<ellipse transform="matrix(0.9986 -5.288392e-02 5.288392e-02 0.9986 -1.0574 4.4225)" class="st9" cx="83" cy="22.2" rx="0.4" ry="0.2"/>
		</g>
		<g>
			<ellipse transform="matrix(0.4555 -0.8902 0.8902 0.4555 24.2956 83.8056)" class="st9" cx="80.7" cy="22" rx="0.2" ry="0.6"/>
		</g>
	</g>
	<g>
		<g>
			<path class="st9" d="M86.3,26.9c0,0-1.1-0.8-0.2-1.7c1-0.9,2.5-0.8,3.3-0.6c0.7,0.3,1.4,0.8,1.1,1.6C90,27.2,88.1,28,86.3,26.9z"
				/>
			<path class="st58" d="M86.2,27C86.2,27,86.2,27,86.2,27L86.2,27c-0.1,0-1.3-0.9-0.2-1.8c0.6-0.5,1.3-0.7,1.8-0.8
				c0.6-0.1,1.2,0,1.7,0.2c0.4,0.1,1.6,0.7,1.1,1.7c-0.3,0.5-1,1-1.9,1.2C87.9,27.6,87,27.5,86.2,27z M86.4,26.8
				c0.7,0.4,1.5,0.6,2.3,0.4c0.7-0.1,1.4-0.5,1.6-1c0.4-0.8-0.6-1.3-1-1.5c-0.4-0.2-0.9-0.2-1.4-0.2c-0.4,0-1.1,0.2-1.6,0.7
				C85.4,26.1,86.3,26.8,86.4,26.8z"/>
		</g>
		<g>
			
				<ellipse transform="matrix(0.9986 -5.288302e-02 5.288302e-02 0.9986 -1.2537 4.7176)" class="st62" cx="88.5" cy="26" rx="1.6" ry="1"/>
		</g>
		<g>
			
				<ellipse transform="matrix(0.9986 -5.288377e-02 5.288377e-02 0.9986 -1.2537 4.7177)" class="st53" cx="88.5" cy="26" rx="1.2" ry="0.7"/>
		</g>
		<g>
			
				<ellipse transform="matrix(0.9986 -5.288392e-02 5.288392e-02 0.9986 -1.2486 4.781)" class="st9" cx="89.7" cy="26" rx="0.4" ry="0.2"/>
		</g>
		<g>
			<ellipse transform="matrix(0.4555 -0.8902 0.8902 0.4555 24.5552 91.8158)" class="st9" cx="87.3" cy="25.8" rx="0.2" ry="0.6"/>
		</g>
	</g>
	<g>
		<g>
			<path class="st63" d="M82.4,31.7c0,0,2.7,0.2,4.2-1.2c1.5-1.4,0.1-2.3-0.8-2.6c-1-0.4-3.5-0.2-5.4-1.2c-1.8-1-1.1-2-2-2.9
				c-0.7-0.8-2-1.6-4.1-0.8c-2.1,0.8-2.3,2.8-1.6,4C73.7,28.5,77.2,31.4,82.4,31.7z"/>
			<path class="st58" d="M76,29.9c0,0-0.1,0-0.1-0.1c-1.7-1-2.8-2.1-3.2-2.8c-0.7-1.2-0.5-3.2,1.7-4.1c0.8-0.3,1.6-0.4,2.2-0.3
				c0.8,0.1,1.5,0.5,2.1,1.1c0.4,0.4,0.5,0.8,0.6,1.1c0.2,0.6,0.3,1.1,1.4,1.7c1.1,0.6,2.5,0.8,3.6,0.9c0.7,0.1,1.3,0.1,1.7,0.3
				c1.2,0.5,2.2,1.5,0.8,2.8c-1.6,1.4-4.3,1.2-4.4,1.2l0,0C79.5,31.6,77.3,30.7,76,29.9z M77.5,23.2c-0.3-0.2-0.7-0.3-1-0.4
				c-0.6-0.1-1.3,0-2,0.3c-0.6,0.2-1.5,0.8-1.8,1.8c-0.2,0.7-0.1,1.5,0.3,2c0.4,0.7,1.5,1.8,3.1,2.8c1.3,0.8,3.5,1.7,6.3,1.9l0,0
				c0,0,2.6,0.2,4.1-1.1c1.6-1.5-0.3-2.3-0.7-2.5c-0.4-0.1-0.9-0.2-1.6-0.3c-1.2-0.1-2.6-0.3-3.8-0.9c-1.1-0.6-1.3-1.3-1.5-1.8
				c-0.1-0.4-0.2-0.7-0.5-1.1C78.1,23.6,77.8,23.4,77.5,23.2z"/>
		</g>
		<g>
			<path class="st64" d="M79.7,31.1c0,0,1.5,0.3,2.2-0.4s-0.2-1.3-0.7-1.5c-0.6-0.3-2-0.3-3.1-1c-1.1-0.7-0.8-1.1-1.4-1.7
				c-0.5-0.5-1.3-1-2.4-0.7c-1.1,0.3-0.9,1.4-0.4,2.1C74.5,28.8,76.8,30.6,79.7,31.1z"/>
		</g>
		<g>
			<path class="st9" d="M81.6,31.6c0.3,0,0.5,0.1,0.8,0.1l0,0c0,0,0.3,0,0.7,0c0.1,0,0.1-0.1,0.2-0.2c0,0,0.2-0.8-0.4-1
				C82.5,30.4,82.2,31.2,81.6,31.6z"/>
		</g>
		<g>
			<path class="st9" d="M76.7,23.1c0,0-0.8,1-0.2,1.3c0.4,0.1,1-0.4,1.7-0.7c-0.4-0.4-0.8-0.6-1.2-0.7C76.9,23,76.8,23.1,76.7,23.1z
				"/>
		</g>
		<g>
			<path class="st9" d="M85.4,27.9c-0.6,0.5-1.4,0.8-1.2,1.1c0.7,0.3,2.3-0.2,2.3-0.2c0.1,0,0.1-0.1,0.2-0.1
				c-0.2-0.2-0.4-0.3-0.6-0.4c-0.2-0.1-0.4-0.2-0.5-0.2C85.6,28,85.5,28,85.4,27.9z"/>
		</g>
		<g>
			<path class="st9" d="M82.7,27.6c-0.4,0.3-0.7,0.6-0.4,0.8c0.9,0.3,2.4-0.3,2.8-0.5c-0.3,0-0.6-0.1-0.9-0.1
				C83.7,27.7,83.2,27.6,82.7,27.6z"/>
		</g>
		<g>
			<path class="st9" d="M72.7,24.9c-0.1,0.3-0.1,0.6-0.1,0.9c0.7-0.3,1.7-0.5,1.6-0.7C73.9,24.8,73.1,24.8,72.7,24.9z"/>
		</g>
	</g>
	<path class="st65" d="M92.9,27.9c-0.2,0.1-0.4,0.1-0.6,0c-0.8-0.1-0.9-1.1-0.3-2c0.5-0.9,1.5-1.3,2.3-1.2c0,0,0,0,0.1,0
		C94.2,25.7,93.7,26.8,92.9,27.9z"/>
	<g>
		<path class="st63" d="M83.5,24.9c0,0-0.8-0.5-1.1-0.3c-0.8,0.5,0,0.9,0,0.9s0.8,0.5,1.6,0C84.3,25.3,83.5,24.9,83.5,24.9z"/>
		<ellipse transform="matrix(0.9986 -5.288392e-02 5.288392e-02 0.9986 -1.2133 4.401)" cx="82.6" cy="25.1" rx="0.2" ry="0.1"/>
		<ellipse transform="matrix(0.9986 -5.287784e-02 5.287784e-02 0.9986 -1.2316 4.4351)" cx="83.2" cy="25.5" rx="0.2" ry="0.1"/>
	</g>
	<path class="st66" d="M75.8,31.6c-0.5,0.1-1.6,0.2-2.3-0.2c-0.7-0.4-0.5-1.1-0.4-1.4c0.1,0.2,0.4,0.6,1.1,1
		C74.8,31.4,75.5,31.5,75.8,31.6z"/>
	<g>
		<path class="st58" d="M74.1,31c-0.9-0.5-1.1-1.1-1.1-1.1c0-0.1,0-0.1,0.1-0.1c0.1,0,0.2,0,0.2,0.1c0,0,0.2,0.5,1.1,1
			s1.7,0.6,1.7,0.6c0.1,0,0.1,0.1,0.1,0.1c0,0.1-0.1,0.1-0.2,0.1C76,31.6,75.1,31.5,74.1,31z"/>
	</g>
	<path class="st65" d="M89.4,18.8c0,0,1.1,0.6,1.1,1.6c-0.3-0.2-1.1-0.5-1.1-0.5S89.6,19.4,89.4,18.8z"/>
	<path class="st65" d="M91,20.7l1.2,0.8c0,0,1.1-1.3,3.2-1.2C93.8,20,91.8,20,91,20.7z"/>
	<path class="st65" d="M87.8,19.5l0.7,0.2c0,0-0.2-0.6-1-1C87.8,19.2,87.8,19.5,87.8,19.5z"/>
	<path class="st65" d="M92.7,21.8l0.2,0.3c0,0,0.6-0.3,0.9-0.3C93.4,21.6,92.7,21.8,92.7,21.8z"/>
	<path class="st65" d="M81.4,20.2c-1.4,0.3-2.8,0.3-3.1-0.2c-0.1-0.2,0-0.3,0.3-0.5c0.9-0.2,1.8-0.3,2.6-0.4C82,19,82.7,19,83.5,19
		C83.4,19.4,82.5,19.9,81.4,20.2z"/>
	<g>
		<path class="st67" d="M88,16.3c0,0-2.2,0.1-3.9,0.8c-2.1,0.8-1,1.5-1.3,1.9c-0.3,0.5-1.4,0.9-2.4,0.8c-1.3-0.2-1.8-0.7-1.8-1.3
			c0-1.4,1-2.7,4-3.1C84.9,15,86.9,15.5,88,16.3z"/>
		<path class="st58" d="M79.2,19.5c-0.4-0.3-0.7-0.6-0.6-1c0-0.8,0.3-1.5,0.9-2c0.7-0.6,1.8-1,3.2-1.2c2.2-0.3,4.3,0.1,5.5,1
			l0.2,0.1l-0.3,0c0,0-2.2,0.1-3.8,0.8c-1.4,0.5-1.3,1-1.2,1.4c0,0.2,0.1,0.3,0,0.5c-0.4,0.6-1.5,1-2.6,0.8
			C79.9,19.8,79.5,19.7,79.2,19.5z M87.4,16.1c-1.2-0.7-2.9-0.9-4.7-0.6c-2.5,0.4-3.9,1.4-3.9,3c0,0.7,0.5,1.1,1.7,1.2
			c0.8,0.1,1.9-0.2,2.2-0.7c0.1-0.1,0-0.2,0-0.4c-0.1-0.4-0.2-1,1.3-1.6c1.4-0.5,3-0.7,3.7-0.8C87.6,16.2,87.5,16.1,87.4,16.1z"/>
	</g>
	<path class="st68" d="M82.7,19c-0.2,0.3-0.6,0.5-1.1,0.6c-0.2-0.1-0.6-0.2-0.8-0.7c-0.2-0.5-0.4-1.8,2-2.7c1.2-0.4,3-0.8,4.4-0.3
		l0,0c0,0,0,0,0,0c0,0,0,0,0.1,0l0,0c0.1,0.1,0.2,0.1,0.4,0.2c-0.6,0.1-2.1,0.2-3.4,0.7C84.2,17,84.1,17,84,17c0,0,0,0-0.1,0
		c0,0,0,0,0,0c-1.5,0.6-1.3,1.1-1.2,1.6C82.7,18.8,82.7,18.9,82.7,19z"/>
	<path class="st9" d="M82.2,15.8c-0.3,0.1-0.5,0.2-0.8,0.4c-0.3,0.1-0.5,0.3-0.7,0.4c-0.1,0-0.1,0.1-0.2,0.1l-0.2,0.1
		c-0.1,0.1-0.2,0.2-0.3,0.2c-0.2,0.2-0.4,0.3-0.5,0.5c0-0.2,0.1-0.4,0.3-0.6l0.1-0.1c0,0,0,0,0.1-0.1c0,0,0.1-0.1,0.1-0.1
		c0.1-0.1,0.2-0.2,0.3-0.2c0.2-0.2,0.5-0.3,0.8-0.4c0.1,0,0.2-0.1,0.2-0.1c0.1,0,0.2,0,0.2-0.1c0.1,0,0.2,0,0.2-0.1
		C82,15.8,82.1,15.8,82.2,15.8z"/>
	<path class="st69" d="M82.7,19c-0.2,0.3-0.6,0.5-1.1,0.6c-0.2-0.1-0.6-0.2-0.8-0.7c-0.2-0.5-0.4-1.8,2-2.7c1.2-0.4,3-0.8,4.4-0.3
		l0,0c0,0,0,0,0,0c0,0,0,0,0.1,0l0,0c0.1,0.1,0.2,0.1,0.4,0.2c-0.6,0.1-2.1,0.2-3.4,0.7C84.2,17,84.1,17,84,17c0,0,0,0-0.1,0
		c0,0,0,0,0,0c-1.5,0.6-1.3,1.1-1.2,1.6C82.7,18.8,82.7,18.9,82.7,19z"/>
	<path class="st67" d="M97.9,22c0,0-0.1,1.3-1.1,2.4c-1.2,1.3-2.5,0.7-3.1,0.9c-0.9,0.2-1.4,0.9-1.1,1.5c0.4,0.8,1.3,1,2.3,1
		c2.4-0.1,4.4-0.8,5-2.6C100.3,23.7,99.4,22.6,97.9,22z"/>
	<path class="st58" d="M93.1,27.4c-0.3-0.2-0.5-0.4-0.7-0.7c-0.3-0.6,0.3-1.3,1.2-1.6c0.2-0.1,0.5,0,0.8,0c0.7,0,1.5,0.1,2.3-0.8
		c1-1.1,1.1-2.3,1.1-2.3l0-0.2l0.2,0.1c1.6,0.7,2.4,1.9,2,3.2c-0.3,0.9-0.9,1.5-1.9,2c-0.8,0.4-1.9,0.6-3.2,0.7
		C94.1,27.8,93.5,27.7,93.1,27.4z M98,22.1c-0.1,0.4-0.3,1.4-1.1,2.2c-0.9,1-1.9,0.9-2.6,0.9c-0.3,0-0.5,0-0.6,0
		c-0.8,0.2-1.3,0.8-1,1.3c0.3,0.7,1,1,2.2,0.9c2.7-0.1,4.3-1,4.8-2.5C100,23.9,99.4,22.8,98,22.1z"/>
	<path class="st69" d="M93.7,25.3c-0.5,0.1-0.9,0.4-1,0.7c0.1,0.1,0.4,0.3,1.2,0.4c0.9,0.1,3.1,0.1,4.3-1.4c0.6-0.7,1.1-1.8,0.3-2.7
		l0,0c0,0,0,0,0,0c0,0,0,0-0.1,0l0,0c-0.1-0.1-0.2-0.1-0.4-0.2c-0.1,0.4-0.3,1.3-1,2.1c0,0.1-0.1,0.1-0.1,0.2c0,0,0,0,0,0
		c0,0,0,0,0,0c-0.9,0.9-1.8,0.9-2.5,0.8C94.1,25.3,93.9,25.2,93.7,25.3z"/>
	<path class="st9" d="M99.1,25.4c0,0.1,0,0.1,0,0.2c0,0.1,0,0.1-0.1,0.1c0,0-0.1,0.1-0.1,0.1c0,0-0.1,0.1-0.1,0.1
		c-0.2,0.2-0.4,0.4-0.6,0.5c-0.1,0.1-0.3,0.1-0.4,0.2c-0.1,0-0.1,0.1-0.2,0.1c0,0-0.1,0-0.1,0l-0.1,0c-0.3,0.1-0.6,0.2-1,0.2
		c0.3-0.1,0.6-0.2,0.8-0.4c0.1-0.1,0.2-0.1,0.4-0.2l0.2-0.1c0.1,0,0.1-0.1,0.2-0.1c0.2-0.1,0.4-0.3,0.6-0.4
		C98.7,25.7,98.9,25.6,99.1,25.4z"/>
</g>
</svg>
