<svg xmlns="http://www.w3.org/2000/svg" xmlns:xlink="http://www.w3.org/1999/xlink" viewBox="0 0 230.78 120.16"><defs><style>.cls-1{fill:none;}.cls-2{isolation:isolate;}.cls-3{clip-path:url(#clip-path);}.cls-4{fill:#707070;}.cls-5{clip-path:url(#clip-path-2);}.cls-6{fill:#6f6f6f;}.cls-7{fill:#d6d6d6;}.cls-8{clip-path:url(#clip-path-3);}.cls-9{fill:#3bc720;}.cls-10{clip-path:url(#clip-path-4);}.cls-11{fill:#268015;}.cls-12{fill:#278516;}.cls-13{fill:#288916;}.cls-14{fill:#2a8d17;}.cls-15{fill:#2b9218;}.cls-16{fill:#247c14;}.cls-17{fill:#237713;}.cls-18{fill:#227313;}.cls-19{clip-path:url(#clip-path-5);}.cls-20{clip-path:url(#clip-path-6);}.cls-21{font-size:12px;font-family:FuturaBT-BoldItalic, Futura Md BT;font-weight:700;font-style:italic;}.cls-22{fill:#9b9b9b;}.cls-23{clip-path:url(#clip-path-7);}.cls-24{fill:#1e1e1e;}.cls-25{fill:#1f1f1f;}.cls-26{fill:#202020;}.cls-27{fill:#222;}.cls-28{fill:#232323;}.cls-29{fill:#242424;}.cls-30{fill:#252525;}.cls-31{fill:#262626;}.cls-32{clip-path:url(#clip-path-8);}.cls-33{clip-path:url(#clip-path-9);}.cls-34{clip-path:url(#clip-path-10);}.cls-35{clip-path:url(#clip-path-11);}.cls-36{clip-path:url(#clip-path-12);}.cls-37{clip-path:url(#clip-path-13);}.cls-38{clip-path:url(#clip-path-14);}.cls-39{fill:#2e9d1a;}.cls-40{fill:#292929;}.cls-41{clip-path:url(#clip-path-15);}.cls-42{clip-path:url(#clip-path-16);}.cls-43{clip-path:url(#clip-path-17);}.cls-44{fill:#2e9c19;}.cls-45{clip-path:url(#clip-path-18);}.cls-46{clip-path:url(#clip-path-19);}.cls-47{clip-path:url(#clip-path-20);}.cls-48{clip-path:url(#clip-path-21);}.cls-49{clip-path:url(#clip-path-22);}.cls-50{clip-path:url(#clip-path-23);}.cls-51{clip-path:url(#clip-path-24);}.cls-52{clip-path:url(#clip-path-25);}.cls-53{fill:#2d9919;}.cls-54{clip-path:url(#clip-path-26);}.cls-55{clip-path:url(#clip-path-27);}.cls-56{clip-path:url(#clip-path-28);}.cls-57{clip-path:url(#clip-path-29);}.cls-58{clip-path:url(#clip-path-30);}.cls-59{clip-path:url(#clip-path-31);}.cls-60{clip-path:url(#clip-path-32);}.cls-61{fill:#343434;}.cls-62{clip-path:url(#clip-path-33);}</style><clipPath id="clip-path"><path class="cls-1" d="M.05,47l0-3.43c0,.91.71,1.81,2.09,2.48l.05,3.44C.76,48.78.06,47.88.05,47Z"/></clipPath><clipPath id="clip-path-2"><path class="cls-1" d="M230.74,73.19l0,3.44c0,.89-.63,1.79-1.94,2.5l0-3.43C230.1,75,230.75,74.09,230.74,73.19Z"/></clipPath><clipPath id="clip-path-3"><path class="cls-1" d="M154.84,115.61l0,3.43a12,12,0,0,1-9.72.17l0-3.43A12,12,0,0,0,154.84,115.61Z"/></clipPath><clipPath id="clip-path-4"><path class="cls-1" d="M70.38,29.21l-.06,1.47A6.46,6.46,0,0,1,68,35.2c-3.9,3.55-11.4,4.2-16.76,1.44l-.36-.19c-3.08-1.71-4.67-4.23-4.57-6.72l.06-1.47c-.1,2.49,1.49,5,4.57,6.72l.36.19c5.35,2.76,12.86,2.12,16.76-1.44A6.46,6.46,0,0,0,70.38,29.21Z"/></clipPath><clipPath id="clip-path-5"><path class="cls-1" d="M108,45.84,108,47.31a6.46,6.46,0,0,1-2.29,4.51c-3.9,3.56-11.41,4.2-16.76,1.44l-.36-.19c-3.08-1.71-4.67-4.22-4.57-6.72L84,44.88c-.1,2.5,1.49,5,4.57,6.72a3.9,3.9,0,0,0,.35.19c5.36,2.76,12.87,2.12,16.77-1.44A6.44,6.44,0,0,0,108,45.84Z"/></clipPath><clipPath id="clip-path-6"><path class="cls-1" d="M145.69,63.46l-.05,1.47a6.45,6.45,0,0,1-2.3,4.51C139.45,73,132,73.65,126.59,70.89l-.36-.19c-3.08-1.71-4.67-4.23-4.58-6.73l.06-1.47c-.1,2.5,1.49,5,4.58,6.73l.36.19C132,72.18,139.5,71.53,143.4,68A6.48,6.48,0,0,0,145.69,63.46Z"/></clipPath><clipPath id="clip-path-7"><path class="cls-1" d="M168.57,77.2l-.06,1.47a.2.2,0,0,0-.19,0l.05-1.47A.25.25,0,0,1,168.57,77.2Z"/></clipPath><clipPath id="clip-path-8"><path class="cls-1" d="M172.93,79.41l0,0,.06-1.47,0,0Z"/></clipPath><clipPath id="clip-path-9"><path class="cls-1" d="M173.09,79.57a.41.41,0,0,0-.16-.16l0-1.47a.35.35,0,0,1,.16.16Z"/></clipPath><clipPath id="clip-path-10"><path class="cls-1" d="M170.1,78.1,170,79.56s0,0,0-.06l.05-1.47A.08.08,0,0,1,170.1,78.1Z"/></clipPath><clipPath id="clip-path-11"><path class="cls-1" d="M170.1,78.1,170,79.56a.09.09,0,0,1,0,.08l.06-1.46A.12.12,0,0,0,170.1,78.1Z"/></clipPath><clipPath id="clip-path-12"><path class="cls-1" d="M173.09,79.57a.67.67,0,0,1,0-.2v-.2l0-1.07a.51.51,0,0,1,.06.3l-.06,1.47A.6.6,0,0,0,173.09,79.57Z"/></clipPath><clipPath id="clip-path-13"><path class="cls-1" d="M171.34,80l-.12.1.06-1.47.11-.1a1.84,1.84,0,0,1,1.54-.59h0l-.06,1.47h0A1.82,1.82,0,0,0,171.34,80Z"/></clipPath><clipPath id="clip-path-14"><path class="cls-1" d="M171.28,78.6l-.06,1.47a1.88,1.88,0,0,0-.34.35l.05-1.47A2.89,2.89,0,0,1,171.28,78.6Z"/></clipPath><clipPath id="clip-path-15"><path class="cls-1" d="M173.2,78.4l-.06,1.47a1.21,1.21,0,0,1-.12.49,2.09,2.09,0,0,1-.19.36,2.83,2.83,0,0,1-.31.42,2.28,2.28,0,0,1-.38.38l.06-1.46a4.54,4.54,0,0,0,.38-.38,5.06,5.06,0,0,0,.31-.43,2.09,2.09,0,0,0,.19-.36A1.66,1.66,0,0,0,173.2,78.4Z"/></clipPath><clipPath id="clip-path-16"><path class="cls-1" d="M172.2,80.06l-.06,1.46-.12.12a4.73,4.73,0,0,1-.39.28l.06-1.47a3.16,3.16,0,0,0,.39-.28Z"/></clipPath><clipPath id="clip-path-17"><path class="cls-1" d="M172,81.62a3.27,3.27,0,0,1-.39.29l.06-1.47a3.16,3.16,0,0,0,.39-.28L172,81.62l.06-1.46h0l.05,0-.05,1.47Z"/></clipPath><clipPath id="clip-path-18"><path class="cls-1" d="M164,82.41l.05-1.47a.25.25,0,0,1,.05-.08L164,82.33S164,82.38,164,82.41Z"/></clipPath><clipPath id="clip-path-19"><path class="cls-1" d="M164,82.41l.05-1.47a.07.07,0,0,0,0,.06L164,82.47A.07.07,0,0,1,164,82.41Z"/></clipPath><clipPath id="clip-path-20"><path class="cls-1" d="M174.52,81.82l-.05,1.47a.39.39,0,0,0-.23-.33l.06-1.47A.36.36,0,0,1,174.52,81.82Z"/></clipPath><clipPath id="clip-path-21"><path class="cls-1" d="M174.52,81.82l-.05,1.47a.36.36,0,0,1-.13.23l.06-1.47A.31.31,0,0,0,174.52,81.82Z"/></clipPath><clipPath id="clip-path-22"><path class="cls-1" d="M166.42,83.25l.06-1.47a.29.29,0,0,1,.13-.23L166.55,83A.36.36,0,0,0,166.42,83.25Z"/></clipPath><clipPath id="clip-path-23"><path class="cls-1" d="M165.77,81.79l-.06,1.47a.21.21,0,0,1-.21,0l.06-1.47A.19.19,0,0,0,165.77,81.79Z"/></clipPath><clipPath id="clip-path-24"><path class="cls-1" d="M166.42,83.25l.06-1.47a.38.38,0,0,0,.22.33l0,1.47A.38.38,0,0,1,166.42,83.25Z"/></clipPath><clipPath id="clip-path-25"><path class="cls-1" d="M174.06,82.34,174,83.8a.74.74,0,0,1-.71.1l.06-1.47A.76.76,0,0,0,174.06,82.34Z"/></clipPath><clipPath id="clip-path-26"><path class="cls-1" d="M172.92,82.82l0,1.47a.73.73,0,0,1-.34.13l.06-1.47A.66.66,0,0,0,172.92,82.82Z"/></clipPath><clipPath id="clip-path-27"><path class="cls-1" d="M172.59,83l-.06,1.47v0l.06-1.47Z"/></clipPath><clipPath id="clip-path-28"><path class="cls-1" d="M172.59,83l-.06,1.47a.31.31,0,0,1-.12.23l.06-1.47A.31.31,0,0,0,172.59,83Z"/></clipPath><clipPath id="clip-path-29"><path class="cls-1" d="M172.13,83.49,172.07,85a.6.6,0,0,1-.28.12l.06-1.47A.6.6,0,0,0,172.13,83.49Z"/></clipPath><clipPath id="clip-path-30"><path class="cls-1" d="M171.86,83.69l-.06,1.47a.22.22,0,0,0,0-.08l.06-1.47A.22.22,0,0,1,171.86,83.69Z"/></clipPath><clipPath id="clip-path-31"><path class="cls-1" d="M171.86,83.69l-.06,1.47a.31.31,0,0,1-.12.23l0-1.47A.32.32,0,0,0,171.86,83.69Z"/></clipPath><clipPath id="clip-path-32"><path class="cls-1" d="M171.39,84.21l0,1.47a.78.78,0,0,1-.82,0l0-1.46A.78.78,0,0,0,171.39,84.21Z"/></clipPath><clipPath id="clip-path-33"><path class="cls-1" d="M180.75,80.9l-.06,1.47a6.06,6.06,0,0,1-2.34,4.36c-3.75,3.16-10.66,3.58-15.44.93-2.84-1.58-4.29-3.89-4.2-6.16l.06-1.47c-.09,2.28,1.35,4.58,4.2,6.16,4.77,2.65,11.68,2.23,15.43-.93A6,6,0,0,0,180.75,80.9Z"/></clipPath></defs><g id="Livello_2" data-name="Livello 2"><g id="Menu"><g class="cls-2"><g class="cls-2"><g class="cls-3"><g class="cls-2"><path class="cls-4" d="M2.09,46l.05,3.44C.76,48.78.06,47.88.05,47l0-3.43c0,.91.71,1.81,2.09,2.48"/></g></g></g><g class="cls-2"><g class="cls-5"><g class="cls-2"><path class="cls-4" d="M230.74,73.19l0,3.44c0,.89-.63,1.79-1.94,2.5l0-3.43c1.3-.71,1.95-1.61,1.94-2.51"/></g></g></g><polygon class="cls-6" points="228.8 75.7 228.84 79.13 154.88 119.04 154.84 115.61 228.8 75.7"/><polygon class="cls-6" points="145.11 115.78 145.16 119.21 2.14 49.46 2.09 46.02 145.11 115.78"/><path class="cls-7" d="M228.65,70.71c2.72,1.33,2.79,3.56.15,5l-74,39.91a12,12,0,0,1-9.73.17L2.09,46c-2.73-1.33-2.79-3.56-.15-5l74-39.91A12,12,0,0,1,85.62,1Z"/><g class="cls-2"><g class="cls-8"><g class="cls-2"><path class="cls-4" d="M154.84,115.61l0,3.43a12,12,0,0,1-9.72.17l0-3.43a12,12,0,0,0,9.73-.17"/></g></g></g></g><g class="cls-2"><path class="cls-9" d="M65.8,22.49c5,2.8,6.09,7.76,2.29,11.24s-11.41,4.2-16.76,1.44L51,35c-5-2.8-6.09-7.77-2.28-11.24s11.4-4.2,16.75-1.44Z"/><g class="cls-2"><g class="cls-10"><g class="cls-2"><path class="cls-11" d="M70.38,29.21l-.06,1.47c0,.14,0,.28,0,.43l.06-1.47,0-.43"/><path class="cls-12" d="M70.35,29.64l-.06,1.47a7.1,7.1,0,0,1-.24,1.09l0-1.47a5.93,5.93,0,0,0,.25-1.09"/><path class="cls-13" d="M70.1,30.73l0,1.47a6.49,6.49,0,0,1-.53,1.18l.06-1.47a5.82,5.82,0,0,0,.52-1.18"/><path class="cls-14" d="M69.58,31.91l-.06,1.47a7.39,7.39,0,0,1-1.12,1.46l.06-1.47a7.39,7.39,0,0,0,1.12-1.46"/><path class="cls-15" d="M68.46,33.37l-.06,1.47c-.11.12-.24.24-.37.36a11.4,11.4,0,0,1-4.09,2.32L64,36.05a11.25,11.25,0,0,0,4.09-2.32l.37-.36"/><path class="cls-14" d="M64,36.05l-.06,1.47a15.53,15.53,0,0,1-2.28.58l.05-1.47A15.35,15.35,0,0,0,64,36.05"/><path class="cls-13" d="M61.71,36.63l-.05,1.47c-.6.1-1.2.17-1.81.21l.06-1.46a17.7,17.7,0,0,0,1.8-.22"/><path class="cls-12" d="M59.91,36.85l-.06,1.46c-.55,0-1.1,0-1.65,0l.06-1.47q.83,0,1.65,0"/><path class="cls-11" d="M58.26,36.88l-.06,1.47c-.54,0-1.07-.06-1.61-.12l.06-1.47c.53.06,1.07.1,1.61.12"/><path class="cls-16" d="M56.65,36.76l-.06,1.47a15.57,15.57,0,0,1-1.66-.29L55,36.48c.54.12,1.1.21,1.66.28"/><path class="cls-17" d="M55,36.48l-.06,1.46a16.86,16.86,0,0,1-1.88-.53l.06-1.47a16.89,16.89,0,0,0,1.88.54"/><path class="cls-18" d="M53.11,35.94l-.06,1.47a15.66,15.66,0,0,1-1.78-.77l-.36-.19c-3.08-1.71-4.67-4.23-4.57-6.72l.06-1.47c-.1,2.49,1.49,5,4.57,6.72l.36.19a14.06,14.06,0,0,0,1.78.77"/></g></g></g></g><g class="cls-2"><path class="cls-9" d="M103.44,39.11c5,2.8,6.1,7.77,2.29,11.24S94.32,54.55,89,51.79a3.9,3.9,0,0,1-.35-.19c-5-2.79-6.09-7.76-2.28-11.24s11.39-4.2,16.75-1.44Z"/><g class="cls-2"><g class="cls-19"><g class="cls-2"><path class="cls-11" d="M108,45.84,108,47.31a3,3,0,0,1,0,.42l.06-1.47,0-.42"/><path class="cls-12" d="M108,46.26l-.06,1.47a5.42,5.42,0,0,1-.24,1.1l.06-1.47a7,7,0,0,0,.24-1.1"/><path class="cls-13" d="M107.75,47.36l-.06,1.47a6.05,6.05,0,0,1-.53,1.17l.06-1.47a6.4,6.4,0,0,0,.53-1.17"/><path class="cls-14" d="M107.22,48.53,107.16,50a7.73,7.73,0,0,1-1.11,1.46l0-1.47a7.39,7.39,0,0,0,1.12-1.46"/><path class="cls-15" d="M106.1,50l0,1.47-.38.36a11.42,11.42,0,0,1-4.09,2.33l.06-1.47a11.59,11.59,0,0,0,4.09-2.33c.13-.12.26-.24.37-.36"/><path class="cls-14" d="M101.64,52.68l-.06,1.47a16.66,16.66,0,0,1-2.29.57l.06-1.47a15.64,15.64,0,0,0,2.29-.57"/><path class="cls-13" d="M99.35,53.25l-.06,1.47a17.7,17.7,0,0,1-1.8.22l.06-1.47a15.26,15.26,0,0,0,1.8-.22"/><path class="cls-12" d="M97.55,53.47l-.06,1.47q-.83,0-1.65,0l0-1.47c.56,0,1.11,0,1.66,0"/><path class="cls-11" d="M95.89,53.5l0,1.47c-.54,0-1.08-.06-1.61-.12l.06-1.47c.53.07,1.07.1,1.6.12"/><path class="cls-16" d="M94.29,53.38l-.06,1.47c-.56-.07-1.12-.16-1.66-.28l.05-1.47c.55.12,1.11.21,1.67.28"/><path class="cls-17" d="M92.62,53.1l-.05,1.47A15,15,0,0,1,90.69,54l.06-1.47a15.34,15.34,0,0,0,1.87.54"/><path class="cls-18" d="M90.75,52.56,90.69,54a14.06,14.06,0,0,1-1.78-.77l-.36-.19c-3.08-1.71-4.67-4.22-4.57-6.72L84,44.88c-.1,2.5,1.49,5,4.57,6.72a3.9,3.9,0,0,0,.35.19,12.87,12.87,0,0,0,1.79.77"/></g></g></g></g><g class="cls-2"><path class="cls-9" d="M141.11,56.74c5,2.8,6.1,7.76,2.29,11.24s-11.4,4.2-16.75,1.44l-.36-.19c-5.05-2.8-6.1-7.77-2.29-11.25s11.4-4.2,16.75-1.44Z"/><g class="cls-2"><g class="cls-20"><g class="cls-2"><path class="cls-11" d="M145.69,63.46l-.05,1.47c0,.14,0,.28,0,.42l.06-1.47a3,3,0,0,0,0-.42"/><path class="cls-12" d="M145.66,63.88l-.06,1.47a5.28,5.28,0,0,1-.24,1.1l.06-1.47a5.28,5.28,0,0,0,.24-1.1"/><path class="cls-13" d="M145.42,65l-.06,1.47a6.35,6.35,0,0,1-.52,1.17l.06-1.47a6.06,6.06,0,0,0,.52-1.17"/><path class="cls-14" d="M144.9,66.15l-.06,1.47a7.39,7.39,0,0,1-1.12,1.46l.06-1.47a7.9,7.9,0,0,0,1.12-1.46"/><path class="cls-15" d="M143.78,67.61l-.06,1.47c-.12.12-.24.24-.38.36a11.42,11.42,0,0,1-4.09,2.33l.05-1.47A11.51,11.51,0,0,0,143.4,68c.13-.12.26-.24.38-.37"/><path class="cls-14" d="M139.3,70.3l-.05,1.47a15.35,15.35,0,0,1-2.29.58l.06-1.47a15.22,15.22,0,0,0,2.28-.58"/><path class="cls-13" d="M137,70.88,137,72.35a17.69,17.69,0,0,1-1.8.21l.06-1.47a17.69,17.69,0,0,0,1.8-.21"/><path class="cls-12" d="M135.22,71.09l-.06,1.47a15.14,15.14,0,0,1-1.65,0l.06-1.47a15.14,15.14,0,0,0,1.65,0"/><path class="cls-11" d="M133.57,71.12l-.06,1.47a14.18,14.18,0,0,1-1.6-.12L132,71c.54.06,1.07.1,1.61.11"/><path class="cls-16" d="M132,71l-.05,1.46a15.72,15.72,0,0,1-1.67-.28l.06-1.47A15.57,15.57,0,0,0,132,71"/><path class="cls-17" d="M130.3,70.72l-.06,1.47a17.31,17.31,0,0,1-1.87-.53l.06-1.47a16.69,16.69,0,0,0,1.87.53"/><path class="cls-18" d="M128.43,70.19l-.06,1.47a15.66,15.66,0,0,1-1.78-.77l-.36-.19c-3.08-1.71-4.67-4.23-4.58-6.73l.06-1.47c-.1,2.5,1.49,5,4.58,6.73l.36.19a13.46,13.46,0,0,0,1.78.77"/></g></g></g></g><text class="cls-21" transform="matrix(0.9, 0.44, -0.44, 0.9, 52.59, 30.88)">1</text><text class="cls-21" transform="matrix(0.9, 0.44, -0.44, 0.9, 90.4, 48)">2</text><text class="cls-21" transform="matrix(0.9, 0.44, -0.44, 0.9, 128.4, 66)">3</text><rect class="cls-22" x="67.95" y="38.15" width="16.29" height="1.21" transform="translate(23.29 -28.36) rotate(24.82)"/><rect class="cls-22" x="106.36" y="55.64" width="16.29" height="1.21" transform="translate(34.18 -42.87) rotate(24.82)"/><g class="cls-2"><g class="cls-2"><g class="cls-23"><g class="cls-2"><path class="cls-24" d="M168.57,77.2l-.06,1.47h0l.06-1.47h0"/><path class="cls-25" d="M168.56,77.2l-.06,1.47h0l0-1.46h0"/><path class="cls-26" d="M168.54,77.2l0,1.46h0l.06-1.47h0"/><path class="cls-27" d="M168.53,77.19l-.06,1.47h0l.06-1.47h0"/><path class="cls-28" d="M168.52,77.19l-.06,1.47h0l.06-1.47h0"/><path class="cls-29" d="M168.5,77.19l-.06,1.47h0l.06-1.46h0"/><path class="cls-30" d="M168.48,77.2l-.06,1.46h0l.05-1.47h0"/><path class="cls-31" d="M168.44,77.2l-.05,1.47-.07,0,.05-1.47.07,0"/></g></g></g><g class="cls-2"><g class="cls-32"><g class="cls-2"><path class="cls-24" d="M173,77.94l0,1.47,0,0,.06-1.47,0,0"/></g></g></g><g class="cls-2"><g class="cls-33"><g class="cls-2"><path class="cls-24" d="M173.2,78.4l-.06,1.47a.46.46,0,0,0-.21-.46l0-1.47a.45.45,0,0,1,.22.46"/></g></g></g><polygon class="cls-25" points="170.06 78.03 170.01 79.5 168.51 78.67 168.57 77.2 170.06 78.03"/><g class="cls-2"><g class="cls-34"><g class="cls-2"><path class="cls-24" d="M170.1,78.1,170,79.56s0,0,0-.06l.05-1.47a.08.08,0,0,1,0,.07"/></g></g></g><g class="cls-2"><g class="cls-35"><g class="cls-2"><polyline class="cls-11" points="170.1 78.1 170.04 79.56 170.04 79.57 170.1 78.1 170.1 78.1"/><path class="cls-12" d="M170.1,78.1,170,79.57v0l.06-1.47v0"/><path class="cls-13" d="M170.1,78.12,170,79.59v0l.06-1.47v0"/><path class="cls-14" d="M170.09,78.14,170,79.61s0,0,0,0l.06-1.46,0,0"/><path class="cls-15" d="M170.07,78.17,170,79.63h0l.06-1.46h0"/></g></g></g><g class="cls-2"><g class="cls-36"><g class="cls-2"><path class="cls-24" d="M173.2,78.4l-.06,1.47a.46.46,0,0,0-.21-.46l0-1.47a.45.45,0,0,1,.22.46"/></g></g></g><g class="cls-2"><g class="cls-37"><g class="cls-2"><path class="cls-24" d="M173,77.92l-.06,1.47h0l.06-1.47h0"/><path class="cls-25" d="M172.92,77.91l-.06,1.47-.07,0,.06-1.47.07,0"/><path class="cls-26" d="M172.85,77.89l-.06,1.47h-.06l.06-1.47h.06"/><path class="cls-27" d="M172.79,77.88l-.06,1.47h-.06l.06-1.47h.06"/><path class="cls-28" d="M172.73,77.87l-.06,1.47h-.08l.06-1.46h.08"/><path class="cls-29" d="M172.65,77.88l-.06,1.46-.11,0,.06-1.47h.11"/><path class="cls-30" d="M172.54,77.89l-.06,1.47-.21,0,0-1.47.22,0"/><path class="cls-31" d="M172.32,77.94l0,1.47a2.91,2.91,0,0,0-.93.56l-.12.1.06-1.47.11-.1a3.11,3.11,0,0,1,.93-.56"/></g></g></g><g class="cls-2"><g class="cls-38"><g class="cls-2"><path class="cls-31" d="M171.28,78.6l-.06,1.47-.19.18.05-1.47.2-.18"/><path class="cls-30" d="M171.08,78.78,171,80.25a.8.8,0,0,0-.15.17l.05-1.47.15-.17"/></g></g></g><polygon class="cls-39" points="170.06 78.18 170 79.64 165.71 83.26 165.77 81.79 170.06 78.18"/><polygon class="cls-31" points="170.93 78.95 170.88 80.42 169.64 80.41 169.7 78.94 170.93 78.95"/><polygon class="cls-40" points="169.7 78.94 169.64 80.41 169.12 80.86 169.17 79.39 169.7 78.94"/><polygon class="cls-40" points="169.17 79.39 169.12 80.86 169.07 80.89 169.13 79.42 169.17 79.39"/><g class="cls-2"><g class="cls-41"><g class="cls-2"><path class="cls-11" d="M173.2,78.4l-.06,1.47V80l.05-1.47a.22.22,0,0,0,0-.08"/><path class="cls-12" d="M173.19,78.48,173.14,80a1.38,1.38,0,0,1-.06.26l.06-1.47a.85.85,0,0,0,.05-.26"/><path class="cls-13" d="M173.14,78.74l-.06,1.47-.06.15a2.43,2.43,0,0,1-.14.28l.06-1.47a2.43,2.43,0,0,0,.14-.28l.06-.15"/><path class="cls-14" d="M172.94,79.17l-.06,1.47a.35.35,0,0,1,0,.08,2.83,2.83,0,0,1-.31.42,2.09,2.09,0,0,1-.14.17l.06-1.47.14-.16a5.06,5.06,0,0,0,.31-.43.56.56,0,0,0,.05-.08"/><path class="cls-15" d="M172.44,79.84l-.06,1.47-.24.21.06-1.46.24-.22"/></g></g></g><g class="cls-2"><g class="cls-42"><g class="cls-2"><path class="cls-15" d="M172.2,80.06l-.06,1.46-.12.12a4.73,4.73,0,0,1-.39.28l.06-1.47a3.16,3.16,0,0,0,.39-.28l.12-.11"/></g></g></g><g class="cls-2"><g class="cls-43"><g class="cls-2"><path class="cls-31" d="M172.15,80.11l-.05,1.47-.06,0a3.27,3.27,0,0,1-.39.29l.06-1.47a3.27,3.27,0,0,0,.39-.29l.05,0"/></g></g></g><polygon class="cls-44" points="172.15 80.11 172.09 81.58 171.96 81.7 172.02 80.23 172.15 80.11"/><polygon class="cls-40" points="168.37 77.24 168.32 78.71 164.03 82.33 164.08 80.86 168.37 77.24"/><g class="cls-2"><g class="cls-45"><g class="cls-2"><path class="cls-31" d="M164.08,80.86,164,82.33h0l.06-1.47h0"/><path class="cls-30" d="M164.07,80.87,164,82.34l0,0,.06-1.47s0,0,0,0"/><path class="cls-29" d="M164.05,80.9,164,82.37v0l.06-1.47v0"/><path class="cls-28" d="M164,80.92,164,82.39v0l.06-1.47v0"/><polyline class="cls-27" points="164.03 80.94 163.98 82.41 163.98 82.41 164.03 80.94 164.03 80.94"/></g></g></g><g class="cls-2"><g class="cls-46"><g class="cls-2"><path class="cls-18" d="M164.07,81,164,82.47a.07.07,0,0,1,0-.06l.05-1.47a.07.07,0,0,0,0,.06"/></g></g></g><polygon class="cls-25" points="174.3 81.49 174.24 82.96 171.96 81.7 172.02 80.23 174.3 81.49"/><polygon class="cls-40" points="169.13 79.42 169.07 80.89 166.73 82.86 166.79 81.4 169.13 79.42"/><g class="cls-2"><g class="cls-47"><g class="cls-2"><path class="cls-24" d="M174.52,81.82l-.05,1.47a.39.39,0,0,0-.23-.33l.06-1.47a.36.36,0,0,1,.22.33"/></g></g></g><polygon class="cls-40" points="166.79 81.4 166.73 82.86 166.55 83.02 166.6 81.55 166.79 81.4"/><g class="cls-2"><g class="cls-48"><g class="cls-2"><path class="cls-11" d="M174.52,81.82l-.05,1.47v0l.06-1.47v0"/><path class="cls-12" d="M174.52,81.84l-.06,1.47a.09.09,0,0,1,0,0l.06-1.47a.09.09,0,0,0,0,0"/><path class="cls-13" d="M174.51,81.89l-.06,1.47a.14.14,0,0,1,0,.06l0-1.47,0-.06"/><path class="cls-14" d="M174.48,82l0,1.47-.06.07.06-1.47,0-.07"/><path class="cls-15" d="M174.43,82l-.06,1.47,0,0,.06-1.47,0,0"/></g></g></g><g class="cls-2"><g class="cls-49"><g class="cls-2"><path class="cls-31" d="M166.61,81.55,166.55,83l0,0,0-1.47,0,0"/><path class="cls-30" d="M166.57,81.58l0,1.47s0,0-.06.07l.06-1.47,0-.07"/><path class="cls-29" d="M166.52,81.65l-.06,1.47a.14.14,0,0,0,0,.06l.05-1.47,0-.06"/><path class="cls-28" d="M166.49,81.71l-.05,1.47,0,0,.06-1.47a.43.43,0,0,0,0-.05"/><path class="cls-27" d="M166.48,81.76l-.06,1.47v0l.06-1.47v0"/></g></g></g><polygon class="cls-17" points="165.56 81.83 165.5 83.3 164.01 82.47 164.07 81 165.56 81.83"/><g class="cls-2"><g class="cls-50"><g class="cls-2"><path class="cls-15" d="M165.77,81.79l-.06,1.47-.07,0,.06-1.47a.13.13,0,0,0,.07,0"/><path class="cls-14" d="M165.7,81.83l-.06,1.47h0l0-1.47h0"/><path class="cls-13" d="M165.66,81.84l0,1.47h0l0-1.47h0"/><path class="cls-12" d="M165.64,81.84l0,1.47h0l.06-1.47h0"/><path class="cls-11" d="M165.63,81.84l-.06,1.47h0l.06-1.47h0"/><path class="cls-16" d="M165.61,81.84l-.06,1.47h0l.06-1.47h0"/><path class="cls-17" d="M165.6,81.84l-.06,1.47h0l.06-1.46h0"/><path class="cls-18" d="M165.58,81.84l-.06,1.46h0l.06-1.47h0"/></g></g></g><path class="cls-9" d="M170.06,78c.06,0,.05.1,0,.15l-4.29,3.61a.19.19,0,0,1-.21,0L164.07,81s0-.09,0-.14l4.29-3.62a.25.25,0,0,1,.2,0Z"/><polygon class="cls-39" points="174.4 82.05 174.34 83.52 174 83.81 174.06 82.34 174.4 82.05"/><g class="cls-2"><g class="cls-51"><g class="cls-2"><path class="cls-18" d="M166.7,82.11l0,1.47a.38.38,0,0,1-.23-.33l.06-1.47a.38.38,0,0,0,.22.33"/></g></g></g><g class="cls-2"><g class="cls-52"><g class="cls-2"><path class="cls-15" d="M174.06,82.34,174,83.8a.54.54,0,0,1-.18.11l.05-1.47a.85.85,0,0,0,.19-.1"/><path class="cls-14" d="M173.87,82.44l-.05,1.47-.11,0,0-1.46.11,0"/><path class="cls-13" d="M173.76,82.47l0,1.46h-.09l.06-1.46h.08"/><path class="cls-12" d="M173.68,82.48l-.06,1.46h-.08l.06-1.47h.08"/><path class="cls-11" d="M173.6,82.48,173.54,84h-.08l.06-1.47h.08"/><path class="cls-16" d="M173.52,82.47l-.06,1.47h-.08l.06-1.47h.08"/><path class="cls-17" d="M173.44,82.46l-.06,1.47-.09,0,.06-1.47.09,0"/><polyline class="cls-18" points="173.35 82.43 173.29 83.9 173.29 83.9 173.35 82.43 173.35 82.43"/></g></g></g><polygon class="cls-53" points="173.35 82.43 173.29 83.9 173.21 84 173.26 82.53 173.35 82.43"/><polygon class="cls-39" points="173.26 82.53 173.21 84 172.87 84.29 172.93 82.82 173.26 82.53"/><g class="cls-2"><g class="cls-54"><g class="cls-2"><path class="cls-15" d="M172.92,82.82l0,1.47a.85.85,0,0,1-.19.1l.06-1.47a.77.77,0,0,0,.18-.1"/><path class="cls-14" d="M172.74,82.92l-.06,1.47-.11,0,.05-1.46.12,0"/><path class="cls-13" d="M172.62,83l-.05,1.46h0l.06-1.47h0"/></g></g></g><g class="cls-2"><g class="cls-55"><g class="cls-2"><path class="cls-24" d="M172.59,83l-.06,1.47v0l.06-1.47v0"/></g></g></g><g class="cls-2"><g class="cls-56"><g class="cls-2"><path class="cls-11" d="M172.59,83l-.06,1.47v0l.06-1.47v0"/><path class="cls-12" d="M172.59,83l-.06,1.47a.13.13,0,0,1,0,.06l.06-1.47s0,0,0-.06"/><path class="cls-13" d="M172.58,83.05l-.06,1.47,0,0,.06-1.46,0-.06"/><path class="cls-14" d="M172.55,83.11l-.06,1.46a.18.18,0,0,1-.05.07l.06-1.47.05-.06"/><path class="cls-15" d="M172.5,83.17l-.06,1.47,0,0,.06-1.47,0,0"/></g></g></g><polygon class="cls-39" points="172.47 83.2 172.41 84.67 172.07 84.96 172.13 83.49 172.47 83.2"/><g class="cls-2"><g class="cls-57"><g class="cls-2"><path class="cls-15" d="M172.13,83.49,172.07,85a.77.77,0,0,1-.18.1l.05-1.47a.57.57,0,0,0,.19-.1"/><path class="cls-14" d="M171.94,83.59l-.05,1.47-.1,0,.06-1.47.09,0"/></g></g></g><g class="cls-2"><g class="cls-58"><g class="cls-2"><path class="cls-24" d="M171.86,83.69l-.06,1.47a.22.22,0,0,0,0-.08l.06-1.47a.22.22,0,0,1,0,.08"/></g></g></g><g class="cls-2"><g class="cls-59"><g class="cls-2"><path class="cls-11" d="M171.86,83.69l-.06,1.47v0l.06-1.47v0"/><path class="cls-12" d="M171.86,83.71l-.06,1.47s0,0,0,0l.06-1.47s0,0,0-.05"/><path class="cls-13" d="M171.85,83.76l-.06,1.47,0,.06.06-1.47,0-.06"/><path class="cls-14" d="M171.82,83.82l-.06,1.47,0,.07.06-1.47,0-.07"/><path class="cls-15" d="M171.77,83.89l-.06,1.47,0,0,0-1.47,0,0"/></g></g></g><polygon class="cls-39" points="171.73 83.92 171.68 85.39 171.34 85.67 171.4 84.21 171.73 83.92"/><polygon class="cls-17" points="170.57 84.26 170.52 85.72 166.65 83.58 166.7 82.11 170.57 84.26"/><path class="cls-9" d="M173,77.94c.26.14.29.51.1,1a2.09,2.09,0,0,1-.19.36,5.06,5.06,0,0,1-.31.43,4.54,4.54,0,0,1-.38.38l-.12.11a3.16,3.16,0,0,1-.39.28,3.08,3.08,0,0,0,.41-.3l.05,0-.13.12,2.28,1.26c.25.14.3.39.1.56l-.34.29a.76.76,0,0,1-.71.09l-.09.1-.34.29a.66.66,0,0,1-.33.13.3.3,0,0,1-.12.25l-.34.29a.6.6,0,0,1-.28.12.29.29,0,0,1-.12.31l-.34.29a.78.78,0,0,1-.82.05l-3.87-2.15a.32.32,0,0,1-.09-.56l.18-.15,2.34-2,0,0,.53-.45h1.23a2.89,2.89,0,0,1,.35-.35l.11-.1a1.84,1.84,0,0,1,1.54-.59h0Z"/><g class="cls-2"><g class="cls-60"><g class="cls-2"><path class="cls-15" d="M171.39,84.21l0,1.47-.19.1.06-1.47a.52.52,0,0,0,.18-.1"/><path class="cls-14" d="M171.21,84.31l-.06,1.47-.11,0,.06-1.47.11,0"/><path class="cls-13" d="M171.1,84.34,171,85.81H171l.06-1.47h.09"/><path class="cls-12" d="M171,84.35,171,85.82h-.08l.06-1.47H171"/><path class="cls-11" d="M170.93,84.35l-.06,1.47h-.08l.06-1.47h.08"/><path class="cls-16" d="M170.85,84.34l-.06,1.47h-.08l.06-1.47h.08"/><path class="cls-17" d="M170.77,84.33l-.06,1.47-.09,0,.06-1.47.09,0"/><path class="cls-18" d="M170.68,84.3l-.06,1.47a.31.31,0,0,1-.1,0l0-1.46.11,0"/></g></g></g><path class="cls-61" d="M176.55,74.74c4.77,2.65,5.6,7.35,1.85,10.52s-10.66,3.58-15.43.93-5.61-7.35-1.86-10.52S171.77,72.09,176.55,74.74Zm-2.49,7.6.34-.29c.2-.17.15-.42-.1-.56L172,80.23l.13-.12-.05,0a3.27,3.27,0,0,1-.39.29,3.4,3.4,0,0,0,.37-.27l.12-.11a4.54,4.54,0,0,0,.38-.38,5.06,5.06,0,0,0,.31-.43,2.09,2.09,0,0,0,.19-.36c.19-.44.16-.81-.1-1l0,0h0a1.84,1.84,0,0,0-1.54.59l-.11.1a2.89,2.89,0,0,0-.35.35H169.7l-.53.45,0,0-2.34,2-.18.15a.32.32,0,0,0,.09.56l3.87,2.15a.78.78,0,0,0,.82-.05l.34-.29a.29.29,0,0,0,.12-.31.6.6,0,0,0,.28-.12l.34-.29a.3.3,0,0,0,.12-.25.66.66,0,0,0,.33-.13l.34-.29.09-.1a.76.76,0,0,0,.71-.09m-8.29-.55,4.29-3.61c.05-.05.06-.12,0-.15l-1.49-.83a.25.25,0,0,0-.2,0l-4.29,3.62c-.06,0-.06.11,0,.14l1.49.83a.19.19,0,0,0,.21,0"/><g class="cls-2"><g class="cls-62"><g class="cls-2"><path class="cls-27" d="M180.75,80.9l-.06,1.47a2.56,2.56,0,0,1,0,.39l.06-1.47,0-.39"/><path class="cls-28" d="M180.72,81.29l-.06,1.47a5,5,0,0,1-.22,1l.06-1.46a5.22,5.22,0,0,0,.22-1"/><path class="cls-29" d="M180.5,82.3l-.06,1.46a5.75,5.75,0,0,1-.48,1.08l.06-1.47a6,6,0,0,0,.48-1.07"/><path class="cls-30" d="M180,83.37,180,84.84a6.55,6.55,0,0,1-1,1.33L179,84.7a6.94,6.94,0,0,0,1-1.33"/><path class="cls-31" d="M179,84.7l-.06,1.47a7.91,7.91,0,0,1-.59.56,10.68,10.68,0,0,1-3.52,1.91l.06-1.47a10.53,10.53,0,0,0,3.51-1.91,6.49,6.49,0,0,0,.6-.56"/><path class="cls-30" d="M174.89,87.17l-.06,1.47a14.21,14.21,0,0,1-2.09.53l.06-1.47a13.05,13.05,0,0,0,2.09-.53"/><path class="cls-29" d="M172.8,87.7l-.06,1.47c-.54.09-1.09.16-1.65.2l.06-1.47a14.87,14.87,0,0,0,1.65-.2"/><path class="cls-28" d="M171.15,87.9l-.06,1.47c-.5,0-1,0-1.51,0l.06-1.46c.51,0,1,0,1.51,0"/><path class="cls-27" d="M169.64,87.93l-.06,1.46c-.49,0-1,0-1.47-.1l.06-1.47c.49.06,1,.09,1.47.11"/><path class="cls-26" d="M168.17,87.82l-.06,1.47c-.51-.07-1-.15-1.53-.26l.06-1.47a15.26,15.26,0,0,0,1.53.26"/><path class="cls-25" d="M166.64,87.56,166.58,89a14.7,14.7,0,0,1-1.72-.5l0-1.47a14.86,14.86,0,0,0,1.73.5"/><path class="cls-24" d="M164.91,87.06l0,1.47a13.15,13.15,0,0,1-2-.87c-2.84-1.58-4.29-3.89-4.2-6.16l.06-1.47c-.09,2.28,1.35,4.58,4.2,6.16a13,13,0,0,0,1.94.87"/></g></g></g></g><rect class="cls-22" x="143.02" y="72.54" width="16.29" height="1.21" transform="translate(44.66 -56.69) rotate(24.82)"/></g></g></svg>