<svg xmlns="http://www.w3.org/2000/svg" xmlns:xlink="http://www.w3.org/1999/xlink" viewBox="0 0 230.79 120.16"><defs><style>.cls-1{fill:none;}.cls-2{isolation:isolate;}.cls-3{clip-path:url(#clip-path);}.cls-4{fill:#227313;}.cls-5{clip-path:url(#clip-path-2);}.cls-6{fill:#217213;}.cls-7{fill:#217112;}.cls-8{fill:#40db24;}.cls-9{clip-path:url(#clip-path-3);}.cls-10{clip-path:url(#clip-path-4);}.cls-11{clip-path:url(#clip-path-5);}.cls-12{fill:#3bc821;}.cls-13{clip-path:url(#clip-path-6);}.cls-14{fill:#414141;}.cls-15{clip-path:url(#clip-path-7);}.cls-16{fill:#282828;}.cls-17{clip-path:url(#clip-path-8);}.cls-18{fill:#216f12;}.cls-19{clip-path:url(#clip-path-9);}.cls-20{clip-path:url(#clip-path-10);}.cls-21{clip-path:url(#clip-path-11);}.cls-22{clip-path:url(#clip-path-12);}.cls-23{fill:#37bb1e;}.cls-24{clip-path:url(#clip-path-13);}.cls-25{clip-path:url(#clip-path-14);}.cls-26{clip-path:url(#clip-path-15);}.cls-27{fill:#272727;}</style><clipPath id="clip-path"><path class="cls-1" d="M.05,47l0-3.43c0,.91.71,1.81,2.09,2.49l.05,3.43C.76,48.79.06,47.88.05,47Z"/></clipPath><clipPath id="clip-path-2"><path class="cls-1" d="M230.74,73.19l0,3.44c0,.89-.63,1.79-1.94,2.5l0-3.43C230.11,75,230.76,74.09,230.74,73.19Z"/></clipPath><clipPath id="clip-path-3"><path class="cls-1" d="M154.84,115.61l0,3.43a11.93,11.93,0,0,1-9.72.18l0-3.44A12,12,0,0,0,154.84,115.61Z"/></clipPath><clipPath id="clip-path-4"><path class="cls-1" d="M133.81,47.91l.11-2.93a9.15,9.15,0,0,1,2.42-5.83l-.11,2.94A9,9,0,0,0,133.81,47.91Z"/></clipPath><clipPath id="clip-path-5"><path class="cls-1" d="M87.28,61.25l.12-2.93a60.74,60.74,0,0,0,1.68,16.47L89,77.72A61.52,61.52,0,0,1,87.28,61.25Z"/></clipPath><clipPath id="clip-path-6"><path class="cls-1" d="M149.6,62.8l-.12,2.93a10.4,10.4,0,0,1-1.19,1.06C131.44,79.58,91.08,77.82,89,77.72l.12-2.93c2.12.09,42.48,1.86,59.33-10.94A11.27,11.27,0,0,0,149.6,62.8Z"/></clipPath><clipPath id="clip-path-7"><path class="cls-1" d="M124,58.16l0,.74a6,6,0,0,1-2.34,4.35c-3.75,3.17-10.66,3.58-15.44.94-2.84-1.58-4.29-3.89-4.2-6.16l0-.74c-.09,2.28,1.35,4.59,4.2,6.16,4.77,2.65,11.68,2.23,15.43-.93A6,6,0,0,0,124,58.16Z"/></clipPath><clipPath id="clip-path-8"><path class="cls-1" d="M114.93,52.57l0,.73a.22.22,0,0,0-.17,0l0-.73A.24.24,0,0,1,114.93,52.57Z"/></clipPath><clipPath id="clip-path-9"><path class="cls-1" d="M119.48,55.15l0,.73a.13.13,0,0,0-.08-.1l0-.73C119.46,55.08,119.48,55.12,119.48,55.15Z"/></clipPath><clipPath id="clip-path-10"><path class="cls-1" d="M120.48,55.19l0,.73a.56.56,0,0,1-.22.41l0-.73A.58.58,0,0,0,120.48,55.19Z"/></clipPath><clipPath id="clip-path-11"><path class="cls-1" d="M110.19,57.12l0-.74s0,0,0,0l0,.74Z"/></clipPath><clipPath id="clip-path-12"><path class="cls-1" d="M109.19,57.08l0-.73a.76.76,0,0,0,.46.65l0,.73A.75.75,0,0,1,109.19,57.08Z"/></clipPath><clipPath id="clip-path-13"><path class="cls-1" d="M115.73,59.41l0,.74a1.53,1.53,0,0,1-1.59.06l0-.73A1.51,1.51,0,0,0,115.73,59.41Z"/></clipPath><clipPath id="clip-path-14"><path class="cls-1" d="M117.85,58.22l0,.73a2.72,2.72,0,0,1-1.06,2,6.7,6.7,0,0,1-7,.43,3.22,3.22,0,0,1-1.91-2.81l0-.73a3.22,3.22,0,0,0,1.91,2.8,6.68,6.68,0,0,0,7-.42A2.78,2.78,0,0,0,117.85,58.22Z"/></clipPath><clipPath id="clip-path-15"><path class="cls-1" d="M113.9,57.56l0,.73a.6.6,0,0,1-.22.43,1.47,1.47,0,0,1-1.52.09.69.69,0,0,1-.41-.6l0-.74a.67.67,0,0,0,.41.6,1.43,1.43,0,0,0,1.51-.09A.55.55,0,0,0,113.9,57.56Z"/></clipPath></defs><g id="Livello_2" data-name="Livello 2"><g id="Menu"><g class="cls-2"><g class="cls-2"><g class="cls-3"><g class="cls-2"><path class="cls-4" d="M2.09,46l.05,3.43C.76,48.79.06,47.88.05,47l0-3.43c0,.91.71,1.81,2.09,2.49"/></g></g></g><g class="cls-2"><g class="cls-5"><g class="cls-2"><path class="cls-4" d="M230.74,73.19l0,3.44c0,.89-.63,1.79-1.94,2.5l0-3.43c1.31-.71,2-1.61,1.94-2.51"/></g></g></g><polygon class="cls-6" points="228.8 75.7 228.85 79.13 154.88 119.04 154.84 115.61 228.8 75.7"/><polygon class="cls-7" points="145.11 115.78 145.16 119.22 2.14 49.46 2.09 46.03 145.11 115.78"/><path class="cls-8" d="M228.65,70.71c2.73,1.33,2.8,3.56.15,5l-74,39.91a12,12,0,0,1-9.73.17L2.09,46C-.64,44.7-.7,42.46,1.94,41l74-39.92A12,12,0,0,1,85.63,1Z"/><g class="cls-2"><g class="cls-9"><g class="cls-2"><path class="cls-4" d="M154.84,115.61l0,3.43a11.93,11.93,0,0,1-9.72.18l0-3.44a12,12,0,0,0,9.73-.17"/></g></g></g></g><g class="cls-2"><g class="cls-2"><g class="cls-10"><g class="cls-2"><path class="cls-4" d="M136.34,39.15l-.11,2.94a9,9,0,0,0-2.42,5.82l.11-2.93a9.15,9.15,0,0,1,2.42-5.83"/></g></g></g><g class="cls-2"><g class="cls-11"><g class="cls-2"><path class="cls-4" d="M89.08,74.79,89,77.72a61.52,61.52,0,0,1-1.68-16.47l.12-2.93a60.74,60.74,0,0,0,1.68,16.47"/></g></g></g><path class="cls-12" d="M136,38.92l.37.23C131.1,45,134.55,54,144.87,60.34c.45.28.91.54,1.37.8,1.09.6,2.22,1.15,3.36,1.66a11.27,11.27,0,0,1-1.19,1.05c-16.85,12.8-57.21,11-59.33,10.94-.37-1.43-7.3-28.59,9.55-41.38a16.34,16.34,0,0,1,1.41-.93,32.18,32.18,0,0,0,4.1,3c.45.28.92.55,1.39.81C115.65,41.85,128.41,42.92,136,38.92Z"/><g class="cls-2"><g class="cls-13"><g class="cls-2"><path class="cls-4" d="M149.6,62.8l-.12,2.93a10.4,10.4,0,0,1-1.19,1.06C131.44,79.58,91.08,77.82,89,77.72l.12-2.93c2.12.09,42.48,1.86,59.33-10.94a11.27,11.27,0,0,0,1.19-1.05"/></g></g></g></g><g class="cls-2"><ellipse class="cls-14" cx="113.03" cy="57.73" rx="7.46" ry="11" transform="translate(50.93 168.41) rotate(-87.76)"/><g class="cls-2"><g class="cls-15"><g class="cls-2"><path class="cls-16" d="M124,58.16l0,.74a6,6,0,0,1-2.34,4.35c-3.75,3.17-10.66,3.58-15.44.94-2.84-1.58-4.29-3.89-4.2-6.16l0-.74c-.09,2.28,1.35,4.59,4.2,6.16,4.77,2.65,11.68,2.23,15.43-.93A6,6,0,0,0,124,58.16"/></g></g></g></g><g class="cls-2"><g class="cls-2"><g class="cls-17"><g class="cls-2"><path class="cls-4" d="M114.93,52.57l0,.73a.22.22,0,0,0-.17,0l0-.73a.24.24,0,0,1,.18,0"/></g></g></g><polygon class="cls-18" points="119.4 55.05 119.37 55.78 114.9 53.3 114.93 52.57 119.4 55.05"/><g class="cls-2"><g class="cls-19"><g class="cls-2"><path class="cls-4" d="M119.48,55.15l0,.73a.13.13,0,0,0-.08-.1l0-.73c.06,0,.08.07.08.1"/></g></g></g><g class="cls-2"><g class="cls-20"><g class="cls-2"><path class="cls-4" d="M120.48,55.19l0,.73a.56.56,0,0,1-.22.41l0-.73a.58.58,0,0,0,.22-.41"/></g></g></g><polygon class="cls-18" points="114.75 52.55 114.72 53.28 110.2 57.1 110.23 56.36 114.75 52.55"/><g class="cls-2"><g class="cls-21"><g class="cls-2"><path class="cls-4" d="M110.23,56.36l0,.74v0l0-.74s0,0,0,0"/></g></g></g><g class="cls-2"><g class="cls-22"><g class="cls-2"><path class="cls-4" d="M109.68,57l0,.73a.75.75,0,0,1-.46-.65l0-.73a.76.76,0,0,0,.46.65"/></g></g></g><polygon class="cls-18" points="120.26 55.6 120.23 56.33 115.71 60.15 115.73 59.41 120.26 55.6"/><polygon class="cls-18" points="114.15 59.48 114.12 60.21 109.65 57.73 109.68 57 114.15 59.48"/><path class="cls-23" d="M120,54.53c.5.28.6.76.24,1.07l-4.53,3.81a1.51,1.51,0,0,1-1.58.07L109.68,57c-.5-.28-.61-.76-.23-1.07L114,52.11a1.51,1.51,0,0,1,1.58-.06ZM115,59l4.52-3.82s0-.07-.07-.11l-4.47-2.48a.24.24,0,0,0-.18,0l-4.52,3.81s0,.08.07.12L114.77,59a.24.24,0,0,0,.18,0"/><g class="cls-2"><g class="cls-24"><g class="cls-2"><path class="cls-4" d="M115.73,59.41l0,.74a1.53,1.53,0,0,1-1.59.06l0-.73a1.51,1.51,0,0,0,1.58-.07"/></g></g></g></g><g class="cls-2"><path class="cls-23" d="M115.94,55.42c2.17,1.2,2.55,3.34.85,4.78a6.68,6.68,0,0,1-7,.42c-2.17-1.2-2.55-3.35-.84-4.78A6.66,6.66,0,0,1,115.94,55.42Z"/><g class="cls-2"><g class="cls-25"><g class="cls-2"><path class="cls-4" d="M117.85,58.22l0,.73a2.72,2.72,0,0,1-1.06,2,6.7,6.7,0,0,1-7,.43,3.22,3.22,0,0,1-1.91-2.81l0-.73a3.22,3.22,0,0,0,1.91,2.8,6.68,6.68,0,0,0,7-.42,2.78,2.78,0,0,0,1.06-2"/></g></g></g></g><g class="cls-2"><g class="cls-2"><g class="cls-26"><g class="cls-2"><path class="cls-16" d="M113.9,57.56l0,.73a.6.6,0,0,1-.22.43,1.47,1.47,0,0,1-1.52.09.69.69,0,0,1-.41-.6l0-.74a.67.67,0,0,0,.41.6,1.43,1.43,0,0,0,1.51-.09.55.55,0,0,0,.23-.42"/></g></g></g><path class="cls-14" d="M113.49,57c.46.26.55.72.18,1a1.43,1.43,0,0,1-1.51.09c-.47-.26-.54-.72-.18-1A1.43,1.43,0,0,1,113.49,57Z"/></g><g class="cls-2"><polygon class="cls-14" points="112.92 58.29 112.14 59.46 110.43 58.52 111.95 57.75 112.92 58.29"/><polygon class="cls-27" points="112.92 58.29 112.89 59.02 112.11 60.2 112.14 59.46 112.92 58.29"/><polygon class="cls-27" points="112.14 59.46 112.11 60.2 110.4 59.25 110.43 58.52 112.14 59.46"/></g></g></g></svg>