<svg xmlns="http://www.w3.org/2000/svg" viewBox="0 0 312.72 71.51"><g id="Livello_2" data-name="Livello 2"><g id="header"><path d="M25.24,17.8,22.86,32.89c-.12,1-.22,1.79-.28,2.47s-.09,1.3-.09,1.86V38A26,26,0,0,0,21,33.63c-.13-.31-.22-.53-.28-.65L14.24,17.8H4.85L0,48.53H8.21L10.54,33c.13-1,.21-1.87.26-2.49s.08-1.22.08-1.78v-.86c.18.74.4,1.49.66,2.23s.64,1.68,1.14,2.81l6.89,15.64h9L33.45,17.8Z"/><polygon points="96.44 17.8 76.11 17.8 74.73 17.8 54.6 17.8 54.4 17.8 36.84 17.8 31.99 48.53 40.2 48.53 42.09 36.55 50.99 36.55 52.06 29.91 43.12 29.91 43.93 24.85 53.24 24.85 53.23 24.93 60.11 24.93 56.38 48.53 64.63 48.53 68.36 24.93 73.56 24.93 74.94 24.93 80.45 24.93 76.71 48.53 84.96 48.53 88.7 24.93 95.27 24.93 96.44 17.8"/><path d="M173.38,24.29a11.85,11.85,0,0,0-5.22-5.05,12.92,12.92,0,0,0-4.11-1.12,74.89,74.89,0,0,0-8.45-.32h-5.29l-4.17,26.66L140.47,17.8H130.19L116.28,45.57l-5.65-9.17a10.28,10.28,0,0,0,6.27-3.23,9.31,9.31,0,0,0,2.27-6.39A9.08,9.08,0,0,0,118,22,7.91,7.91,0,0,0,114.45,19a10.79,10.79,0,0,0-3.13-.89,41.05,41.05,0,0,0-5.5-.26H97.63L92.78,48.53H101L102.8,36.8l5.94,11.73h15l2.94-5.79h10.75l1.24,5.79H152.6a56.51,56.51,0,0,0,10.6-.68,14.9,14.9,0,0,0,5.48-2.28A14.6,14.6,0,0,0,173.56,40a17.65,17.65,0,0,0,1.61-7.75A16.53,16.53,0,0,0,173.38,24.29Zm-67.22,7.55h-2.59l1.28-8.08h1.22a6.76,6.76,0,0,1,3.91.89,3.32,3.32,0,0,1,1.21,2.87,4,4,0,0,1-1.3,3.21A5.59,5.59,0,0,1,106.16,31.84Zm23.61,4.05,3.25-7c.14-.31.33-.78.58-1.42s.51-1.37.81-2.21a15.16,15.16,0,0,0,.12,1.57c.07.56.18,1.2.32,1.91l1.4,7.18Zm34.59,3.41q-2.56,2.48-7.5,2.47h-.77c-.27,0-.69,0-1.27-.07l2.63-17.11H159c2.79,0,4.8.59,6.05,1.77s1.87,3.08,1.87,5.68C166.92,35.22,166.06,37.64,164.36,39.3Z"/><polygon points="186.81 24.89 196.32 24.89 197.44 17.8 179.72 17.8 174.87 48.53 192.59 48.53 193.66 41.69 184.15 41.69 184.96 36.59 193.82 36.59 194.85 29.91 186.03 29.91 186.81 24.89"/><path d="M219.27,33.17a9.27,9.27,0,0,0,2.28-6.39,9,9,0,0,0-1.2-4.75A7.83,7.83,0,0,0,216.83,19a10.88,10.88,0,0,0-3.13-.89,41.16,41.16,0,0,0-5.5-.26H200l-4.85,30.73h8.17l1.84-11.73,6,11.73h9.36L213,36.4A10.28,10.28,0,0,0,219.27,33.17Zm-7-2.44a5.6,5.6,0,0,1-3.74,1.11H206l1.28-8.08h1.22a6.72,6.72,0,0,1,3.9.89,3.3,3.3,0,0,1,1.22,2.87A4,4,0,0,1,212.27,30.73Z"/><path d="M297.86,9.2a5.73,5.73,0,0,0,.57-2.59,6.72,6.72,0,0,0-12.75-2.87,39.14,39.14,0,0,0-8.24-1,32.66,32.66,0,0,0-6.13.57c-.2,0-.29.1-.48.1-.87.19-1.73.38-2.5.58a3.72,3.72,0,0,0-.47-.87A6.69,6.69,0,0,0,262.2.1,6,6,0,0,0,261,.18h0l-.22,0h-.05a6.68,6.68,0,0,0-5.11,5.06,5.66,5.66,0,0,0-.1,1.34,8.89,8.89,0,0,0,.19,1.63,4.64,4.64,0,0,0,.52,1.34h0l.06.16a9.24,9.24,0,0,0-1.15.9A38.47,38.47,0,0,0,250.6,15v0h0v0h0c-.66.76-1.23,1.52-1.8,2.27a33.29,33.29,0,0,0-6.71,19.94,34.06,34.06,0,0,0,12.13,26l0,0h0l.08.07,0,0,.51.35h0a33.77,33.77,0,0,0,10.64,5.93,35.36,35.36,0,0,0,12,2c19.46,0,35.28-15.34,35.28-34.32A34.05,34.05,0,0,0,297.86,9.2ZM264.09,48.57c-1.93,0-3.5-.89-3.5-2s1.57-2,3.5-2,3.5.9,3.5,2S266,48.57,264.09,48.57Zm5.5-6.69-2.71,1.43.52-3-2.2-2.14,3-.44L269.59,35,271,37.71l3,.44-2.19,2.14.51,3Zm8,13.69a5,5,0,0,1-5-5h10A5,5,0,0,1,277.59,55.57Zm5.29-12.26.52-3-2.2-2.14,3-.44L285.59,35,287,37.71l3,.44-2.19,2.14.51,3-2.71-1.43Zm8.21,5.26c-1.93,0-3.5-.89-3.5-2s1.57-2,3.5-2,3.5.9,3.5,2S293,48.57,291.09,48.57Z"/><polygon points="273.98 38.15 270.95 37.71 269.59 34.96 268.24 37.71 265.2 38.15 267.4 40.29 266.88 43.31 269.59 41.88 272.31 43.31 271.79 40.29 273.98 38.15" style="fill:#67f475"/><polygon points="287.79 40.29 289.98 38.15 286.95 37.71 285.59 34.96 284.24 37.71 281.2 38.15 283.4 40.29 282.88 43.31 285.59 41.88 288.31 43.31 287.79 40.29" style="fill:#67f475"/><ellipse cx="264.09" cy="46.57" rx="3.5" ry="2" style="fill:#67f475"/><ellipse cx="291.09" cy="46.57" rx="3.5" ry="2" style="fill:#67f475"/><path d="M277.59,55.57a5,5,0,0,0,5-5h-10A5,5,0,0,0,277.59,55.57Z" style="fill:#67f475"/><path d="M272.94,14.09h9a2.77,2.77,0,0,0,2.77-2.73s0,0,0,0A2.79,2.79,0,0,0,282,8.53h-9a2.78,2.78,0,0,0-2.78,2.78v0A2.78,2.78,0,0,0,272.94,14.09Z" style="fill:#67f475"/><path d="M292.68,3.35a2.87,2.87,0,0,0-2.87,2.74,2.86,2.86,0,0,0,2.87,2.73,2.8,2.8,0,0,0,2.87-2.73A2.81,2.81,0,0,0,292.68,3.35Z" style="fill:#67f475"/><path d="M261.69,8.91h0a2.87,2.87,0,0,0,2.87-2.78,3,3,0,0,0-1.25-2.39,3.13,3.13,0,0,0-1.61-.48h0a2.76,2.76,0,0,0-.57.06,2.87,2.87,0,0,0-1.58.9,2.8,2.8,0,0,0-.72,1.53V6A2.78,2.78,0,0,0,259,7.17h0c0,.07.08.14.11.22A2.94,2.94,0,0,0,261.69,8.91Z" style="fill:#67f475"/></g></g></svg>