<svg xmlns="http://www.w3.org/2000/svg" viewBox="0 0 378.16 382.78"><g id="Livello_2" data-name="Livello 2"><g id="Livello_1-2" data-name="Livello 1"><path d="M45.62,80.13l.05-.09a.41.41,0,0,0-.05.09Z" style="fill:none"/><path d="M298.63,49.26a30.6,30.6,0,0,0,3.08-13.86A36,36,0,0,0,233.46,20a211.4,211.4,0,0,0-44.12-5.13A173.93,173.93,0,0,0,156.5,18c-1,0-1.54.51-2.57.51-4.62,1-9.23,2.05-13.34,3.08A20.9,20.9,0,0,0,138,16.93,35.84,35.84,0,0,0,107.75.51a34.94,34.94,0,0,0-6.58.44l0,0L100,1.06l.06,0-.17.05h-.13l-.05,0C86,4.31,74.89,15,72.35,28.22a31.72,31.72,0,0,0-.51,7.18,45.56,45.56,0,0,0,1,8.73,24.11,24.11,0,0,0,2.8,7.13l0,0,.34.86A50.13,50.13,0,0,0,69.78,57,206.49,206.49,0,0,0,45.67,80l-.05.09h0a.41.41,0,0,1,.05-.09.42.42,0,0,0-.06.08h0l-.05.06C42,84.24,39,88.3,35.92,92.36,13.34,122.63,0,159.58,0,199.08c0,55.57,25.34,105,64.91,138.89l.22.22.11.07.44.39c-.07-.07-.13-.15-.19-.22l2.73,1.87h0C85.19,353.91,104,365.1,125.2,372a189.2,189.2,0,0,0,64.14,10.78c104.16,0,188.82-82.1,188.82-183.7C378.16,137.51,346.86,82.61,298.63,49.26ZM165.22,45.67h48.23a14.89,14.89,0,0,1,14.88,14.88c0,.08,0,.17,0,.25a14.89,14.89,0,0,1-14.86,14.63H165.22A14.88,14.88,0,0,1,150.37,60.8a2.13,2.13,0,0,1,0-.25A14.89,14.89,0,0,1,165.22,45.67ZM91.45,39.6c-.21-.4-.46-.77-.63-1.19h0a16.12,16.12,0,0,1-1.17-6.07V30.79a15.19,15.19,0,0,1,3.89-8.22,15.6,15.6,0,0,1,8.45-4.8,15.4,15.4,0,0,1,3-.32h.08A17.33,17.33,0,0,1,113.76,20a16.07,16.07,0,0,1,6.67,12.83c0,8.19-7.15,14.84-15.33,14.87H105A15.63,15.63,0,0,1,91.45,39.6ZM117.88,260c-10.35,0-18.73-4.8-18.73-10.71s8.38-10.71,18.73-10.71,18.74,4.8,18.74,10.71S128.23,260,117.88,260Zm29.44-35.83-14.52,7.64,2.78-16.17L123.83,204.2l16.23-2.36,7.26-14.71,7.26,14.71,16.24,2.36-11.75,11.45,2.77,16.17Zm42.83,73.3a26.77,26.77,0,0,1-26.77-26.77h53.53A26.77,26.77,0,0,1,190.15,297.48Zm28.3-65.66,2.77-16.17L209.47,204.2l16.24-2.36L233,187.13l7.26,14.71,16.23,2.36-11.74,11.45,2.77,16.17L233,224.18Zm44,28.19c-10.35,0-18.74-4.8-18.74-10.71s8.39-10.71,18.74-10.71,18.73,4.8,18.73,10.71S272.76,260,262.41,260Zm8.51-212.8c-8.12,0-15.21-6.54-15.37-14.63C255.71,24.49,262.8,18,270.92,18a15,15,0,0,1,15.37,14.62A15,15,0,0,1,270.92,47.21Z" style="fill:#ffffff"/><polygon points="170.81 204.2 154.58 201.84 147.32 187.13 140.06 201.84 123.83 204.2 135.57 215.65 132.8 231.81 147.32 224.18 161.84 231.81 159.07 215.65 170.81 204.2" style="fill:#d8d8d8"/><polygon points="244.72 215.65 256.46 204.2 240.23 201.84 232.97 187.13 225.71 201.84 209.47 204.2 221.22 215.65 218.45 231.81 232.97 224.18 247.49 231.81 244.72 215.65" style="fill:#d8d8d8"/><ellipse cx="117.88" cy="249.3" rx="18.74" ry="10.71" style="fill:#d8d8d8"/><ellipse cx="262.41" cy="249.3" rx="18.74" ry="10.71" style="fill:#d8d8d8"/><path d="M190.15,297.48a26.77,26.77,0,0,0,26.76-26.77H163.38A26.77,26.77,0,0,0,190.15,297.48Z" style="fill:#d8d8d8"/><path d="M165.22,75.43h48.23A14.89,14.89,0,0,0,228.31,60.8c0-.08,0-.17,0-.25a14.89,14.89,0,0,0-14.88-14.88H165.22a14.89,14.89,0,0,0-14.88,14.88,2.13,2.13,0,0,0,0,.25A14.88,14.88,0,0,0,165.22,75.43Z" style="fill:#d8d8d8"/><path d="M270.92,18c-8.12,0-15.21,6.53-15.37,14.62.16,8.09,7.25,14.63,15.37,14.63a15,15,0,0,0,15.37-14.63A15,15,0,0,0,270.92,18Z" style="fill:#d8d8d8"/><path d="M105.1,47.71c8.18,0,15.33-6.68,15.33-14.87A16.07,16.07,0,0,0,113.76,20a17.33,17.33,0,0,0-8.65-2.56H105a15.4,15.4,0,0,0-3,.32,15.6,15.6,0,0,0-8.45,4.8,15.19,15.19,0,0,0-3.89,8.22v1.54a16.12,16.12,0,0,0,1.17,6.07h0c.17.42.42.79.63,1.19A15.63,15.63,0,0,0,105,47.72Z" style="fill:#d8d8d8"/></g></g></svg>