<?xml version="1.0" encoding="utf-8"?>
<!-- Generator: Adobe Illustrator 24.1.0, SVG Export Plug-In . SVG Version: 6.00 Build 0)  -->
<svg version="1.1" id="Livello_1" xmlns="http://www.w3.org/2000/svg" xmlns:xlink="http://www.w3.org/1999/xlink" x="0px" y="0px"
	 viewBox="0 0 312.8 71.6" style="enable-background:new 0 0 312.8 71.6;" xml:space="preserve">
<style type="text/css">
	.st0{fill:#67F475;}
	.st1{fill:none;}
	.st2{font-family:'FuturaBT-BoldItalic';}
	.st3{font-size:7px;}
</style>
<g id="Livello_2_1_">
	<g id="Livello_1-2">
		<g id="Livello_2-2">
			<g id="header">
				<path d="M25.3,17.8l-2.4,15.1c-0.1,1-0.2,1.8-0.3,2.5s-0.1,1.3-0.1,1.9V38c-0.4-1.5-0.9-3-1.5-4.4c-0.1-0.3-0.2-0.5-0.3-0.7
					l-6.5-15.2H4.9L0.1,48.5h8.2L10.6,33c0.1-1,0.2-1.9,0.3-2.5s0.1-1.2,0.1-1.8v-0.9c0.2,0.7,0.4,1.5,0.7,2.2s0.6,1.7,1.1,2.8
					l6.9,15.6h9l4.9-30.8L25.3,17.8z"/>
				<polygon points="96.5,17.8 76.2,17.8 74.8,17.8 54.7,17.8 54.5,17.8 36.9,17.8 32,48.5 40.3,48.5 42.2,36.6 51,36.6 52.1,29.9 
					43.2,29.9 44,24.9 53.3,24.9 53.3,25 60.2,25 56.4,48.5 64.7,48.5 68.4,25 73.6,25 75,25 80.5,25 76.8,48.5 85,48.5 88.8,25 
					95.3,25 				"/>
				<path d="M173.4,24.3c-1.2-2.2-3-3.9-5.2-5c-1.3-0.6-2.7-1-4.1-1.1c-2.8-0.3-5.6-0.4-8.4-0.3h-5.3l-4.2,26.6l-5.7-26.7h-10.3
					l-13.9,27.8l-5.7-9.2c2.4-0.3,4.7-1.4,6.3-3.2c1.5-1.8,2.3-4.1,2.3-6.4c0-1.7-0.4-3.3-1.2-4.8c-0.9-1.3-2.1-2.4-3.6-3
					c-1-0.5-2-0.8-3.1-0.9c-1.8-0.2-3.7-0.3-5.5-0.3h-8.2l-4.9,30.7h8.2l1.8-11.7l5.9,11.7h15l2.9-5.8h10.8l1.2,5.8h13.9
					c3.5,0.1,7.1-0.1,10.6-0.7c2-0.4,3.8-1.2,5.5-2.3c2.1-1.4,3.8-3.3,4.9-5.6c1.1-2.4,1.7-5.1,1.6-7.8
					C175.3,29.5,174.7,26.8,173.4,24.3z M106.2,31.9h-2.6l1.3-8.1h1.2c1.4-0.1,2.7,0.2,3.9,0.9c0.9,0.7,1.3,1.8,1.2,2.9
					c0.1,1.2-0.4,2.4-1.3,3.2C108.9,31.5,107.6,31.9,106.2,31.9z M129.8,35.9l3.2-7c0.1-0.3,0.3-0.8,0.6-1.4s0.5-1.4,0.8-2.2
					c0,0.5,0.1,1,0.1,1.6c0.1,0.6,0.2,1.2,0.3,1.9l1.4,7.2L129.8,35.9z M164.4,39.3c-1.7,1.7-4.2,2.5-7.5,2.5h-0.8
					c-0.4,0-0.8,0-1.3-0.1l2.6-17.1h1.6c2.8,0,4.8,0.6,6.1,1.8s1.9,3.1,1.9,5.7C167,35.2,166.1,37.7,164.4,39.3L164.4,39.3z"/>
				<polygon points="186.9,24.9 196.4,24.9 197.5,17.8 179.8,17.8 174.9,48.5 192.6,48.5 193.7,41.7 184.2,41.7 185,36.6 
					193.9,36.6 194.9,29.9 186.1,29.9 				"/>
				<path d="M219.3,33.2c1.5-1.8,2.4-4,2.3-6.4c0-1.7-0.4-3.3-1.2-4.8c-0.8-1.3-2.1-2.4-3.5-3c-1-0.5-2-0.8-3.1-0.9
					c-1.8-0.2-3.7-0.3-5.5-0.3h-8.2l-4.8,30.7h8.2l1.8-11.7l6,11.7h9.4l-7.5-12.2C215.5,36.1,217.7,35,219.3,33.2z M212.3,30.7
					c-1.1,0.8-2.4,1.2-3.7,1.1h-2.5l1.3-8.1h1.2c1.4-0.1,2.7,0.2,3.9,0.9c0.9,0.7,1.3,1.8,1.2,2.9C213.7,28.8,213.2,29.9,212.3,30.7
					z"/>
				<path d="M297.9,9.2c0.4-0.8,0.6-1.7,0.6-2.6c-0.1-3.7-3.1-6.7-6.8-6.6c-2.5,0-4.8,1.5-5.9,3.8c-2.7-0.6-5.5-1-8.2-1
					c-2.1,0-4.1,0.2-6.1,0.6c-0.2,0-0.3,0.1-0.5,0.1c-0.9,0.2-1.7,0.4-2.5,0.6c-0.1-0.3-0.3-0.6-0.5-0.9c-1.3-1.9-3.4-3-5.7-3
					c-0.4,0-0.8,0-1.2,0.1h-0.3c-2.5,0.5-4.5,2.5-5.1,5.1c-0.1,0.4-0.1,0.9-0.1,1.3c0,0.5,0.1,1.1,0.2,1.6c0.1,0.5,0.3,0.9,0.5,1.3
					l0,0l0.1,0.2c-0.4,0.3-0.8,0.6-1.1,0.9c-1.6,1.3-3.2,2.8-4.5,4.4l0,0c-0.7,0.8-1.2,1.5-1.8,2.3c-4.3,5.7-6.7,12.7-6.7,19.9
					c0,10,4.4,19.5,12.1,26l0,0l0.1,0.1l0,0l0.5,0.3l0,0c3.2,2.6,6.8,4.6,10.6,5.9c3.9,1.4,7.9,2,12,2c19.5,0,35.3-15.3,35.3-34.3
					C312.8,26,307.2,15.5,297.9,9.2z M264.1,48.6c-1.9,0-3.5-0.9-3.5-2s1.6-2,3.5-2s3.5,0.9,3.5,2S266.1,48.6,264.1,48.6z
					 M269.6,41.9l-2.7,1.4l0.5-3l-2.2-2.1l3-0.4l1.4-2.8l1.4,2.7l3,0.4l-2.2,2.1l0.5,3L269.6,41.9z M277.6,55.6c-2.8,0-5-2.2-5-5h10
					C282.6,53.4,280.4,55.6,277.6,55.6z M282.9,43.3l0.5-3l-2.2-2.1l3-0.4l1.4-2.8l1.4,2.7l3,0.4l-2.2,2.1l0.5,3l-2.7-1.4
					L282.9,43.3z M291.1,48.6c-1.9,0-3.5-0.9-3.5-2s1.6-2,3.5-2s3.5,0.9,3.5,2S293.1,48.6,291.1,48.6z"/>
				<polygon class="st0" points="274,38.2 271,37.7 269.6,35 268.3,37.7 265.3,38.2 267.5,40.3 266.9,43.3 269.6,41.9 272.4,43.3 
					271.9,40.3 				"/>
				<polygon class="st0" points="287.9,40.3 290,38.2 287,37.7 285.6,35 284.3,37.7 281.3,38.2 283.5,40.3 282.9,43.3 285.6,41.9 
					288.4,43.3 				"/>
				<ellipse class="st0" cx="264.1" cy="46.6" rx="3.5" ry="2"/>
				<ellipse class="st0" cx="291.1" cy="46.6" rx="3.5" ry="2"/>
				<path class="st0" d="M277.6,55.6c2.8,0,5-2.2,5-5h-10C272.6,53.4,274.9,55.6,277.6,55.6z"/>
				<path class="st0" d="M273,14.1h9c1.5,0,2.7-1.2,2.8-2.7l0,0c0-1.5-1.2-2.8-2.7-2.8h-9c-1.5,0-2.8,1.2-2.8,2.8c0,0,0,0,0,0l0,0
					C270.3,12.8,271.5,14.1,273,14.1z"/>
				<path class="st0" d="M292.7,3.4c-1.5,0-2.8,1.2-2.9,2.7c0.1,1.5,1.3,2.7,2.9,2.7c1.5,0,2.8-1.2,2.9-2.7l0,0
					C295.6,4.6,294.3,3.3,292.7,3.4z"/>
				<path class="st0" d="M261.8,8.9L261.8,8.9c1.6,0,2.8-1.2,2.9-2.8c0-0.9-0.5-1.8-1.2-2.4c-0.5-0.3-1-0.5-1.6-0.5l0,0
					c-0.2,0-0.4,0-0.6,0.1c-0.6,0.1-1.2,0.4-1.6,0.9c-0.4,0.4-0.7,1-0.7,1.5V6c0,0.4,0,0.8,0.2,1.2l0,0c0,0.1,0.1,0.1,0.1,0.2
					C259.7,8.3,260.7,8.9,261.8,8.9z"/>
			</g>
		</g>
		<rect y="51.6" class="st0" width="220.5" height="3.6"/>
	</g>
</g>
<rect x="196.6" y="4.3" width="24.1" height="10.4"/>
<rect x="196.6" y="6.7" class="st1" width="24.1" height="5.5"/>
<text transform="matrix(1 0 0 1 200.5984 12.0357)" class="st0 st2 st3">BETA</text>
</svg>
